<?xml version="1.0" encoding="utf-8"?>
<!-- Generator: Adobe Illustrator 21.0.0, SVG Export Plug-In . SVG Version: 6.00 Build 0)  -->
<svg xmlns="http://www.w3.org/2000/svg" xmlns:xlink="http://www.w3.org/1999/xlink" version="1.1" x="0px" y="0px" viewBox="0 0 100 100" style="enable-background:new 0 0 100 100;" xml:space="preserve" width="50px" height="50px">

<g id="wind_sock">
</g>
<g id="umbrella">
</g>
<g id="temperature">
</g>
<g id="snow_rain_night">
</g>
<g id="snow_rain_day">
</g>
<g id="windy_day">
</g>
<g id="windy_night">
</g>
<g id="storm_night">
</g>
<g id="clear_night">
</g>
<g id="snow_night">
</g>
<g id="snow_day">
</g>
<g id="snow_rain">
</g>
<g id="foggy_night">
</g>
<g id="cloudy_night">
</g>
<g id="rain">
</g>
<g id="storm">
</g>
<g id="fog">
</g>
<g id="wind">
</g>
<g id="cloudy">
</g>
<g id="sun">
</g>
<g id="explorer">
</g>
<g id="visio">
</g>
<g id="access">
</g>
<g id="note">
</g>
<g id="outlook">
</g>
<g id="pdf">
</g>
<g id="power_point">
</g>
<g id="exel">
</g>
<g id="word">
</g>
<g id="office">
</g>
<g id="bridge">
</g>
<g id="muse">
</g>
<g id="flash">
</g>
<g id="premiere">
</g>
<g id="after_effects">
</g>
<g id="dreamwever">
</g>
<g id="indesign">
</g>
<g id="lightroom">
</g>
<g id="illustrator">
	<g>
		<g>
			<g>
				<path d="M69.654,81.921h-39c-6.6,0-12-5.4-12-12v-39c0-6.6,5.4-12,12-12h39c6.6,0,12,5.4,12,12v39      C81.654,76.521,76.254,81.921,69.654,81.921z" style="fill:#F8E55B;"/>
				<path d="M69.154,81.921h-39c-6.904,0-12.5-5.596-12.5-12.5v-39c0-6.904,5.596-12.5,12.5-12.5h39      c6.904,0,12.5,5.596,12.5,12.5v39C81.654,76.325,76.057,81.921,69.154,81.921z M18.654,30.421v39c0,6.351,5.149,11.5,11.5,11.5      h39c6.351,0,11.5-5.149,11.5-11.5v-39c0-6.351-5.149-11.5-11.5-11.5h-39C23.802,18.921,18.654,24.07,18.654,30.421z" style="fill:#1F212B;"/>
			</g>
			<path d="M66.816,77.921H33.491c-5.986,0-10.838-4.852-10.838-10.838V33.758c0-5.985,4.852-10.837,10.837-10.837     h33.663c0.276,0,0.5,0.224,0.5,0.5s-0.224,0.5-0.5,0.5H33.49c-5.433,0-9.837,4.404-9.837,9.837v33.325     c0,5.433,4.405,9.838,9.838,9.838h33.325c5.433,0,9.837-4.404,9.837-9.837V48.421c0-0.276,0.224-0.5,0.5-0.5s0.5,0.224,0.5,0.5     v18.662C77.654,73.069,72.801,77.921,66.816,77.921z" style="fill:#1F212B;"/>
			<path d="M77.154,45.5c-0.276,0-0.5-0.224-0.5-0.5v-4c0-0.276,0.224-0.5,0.5-0.5s0.5,0.224,0.5,0.5v4     C77.654,45.277,77.43,45.5,77.154,45.5z" style="fill:#1F212B;"/>
			<path d="M77.154,39.5c-0.276,0-0.5-0.224-0.5-0.5v-2c0-0.276,0.224-0.5,0.5-0.5s0.5,0.224,0.5,0.5v2     C77.654,39.277,77.43,39.5,77.154,39.5z" style="fill:#1F212B;"/>
		</g>
		<g>
			<g>
				<path d="M57.97,62.222h-3.384l-2.196-5.796H41.194l-2.16,5.796H35.65l9.54-23.976h3.24L57.97,62.222z       M42.202,53.762h9.216L46.81,41.27L42.202,53.762z" style="fill:#FDFCEE;"/>
				<path d="M57.97,62.722h-3.384c-0.208,0-0.394-0.129-0.468-0.323l-2.073-5.473H41.541l-2.038,5.471      c-0.073,0.195-0.26,0.325-0.469,0.325H35.65c-0.166,0-0.321-0.082-0.414-0.22c-0.093-0.137-0.112-0.312-0.051-0.465l9.54-23.976      c0.076-0.19,0.26-0.315,0.464-0.315h3.24c0.205,0,0.389,0.125,0.464,0.315l9.54,23.976c0.062,0.153,0.042,0.328-0.051,0.465      C58.291,62.64,58.136,62.722,57.97,62.722z M54.931,61.722h2.302l-9.142-22.976H45.53l-9.142,22.976h2.3l2.038-5.471      c0.073-0.195,0.26-0.325,0.469-0.325H52.39c0.208,0,0.394,0.129,0.468,0.323L54.931,61.722z M51.418,54.262h-9.216      c-0.164,0-0.317-0.08-0.41-0.214c-0.094-0.135-0.116-0.306-0.059-0.459l4.608-12.492c0.146-0.393,0.793-0.393,0.938,0      l4.608,12.492c0.057,0.153,0.035,0.324-0.059,0.459C51.735,54.182,51.582,54.262,51.418,54.262z M42.92,53.262h7.781      L46.81,42.714L42.92,53.262z" style="fill:#1F212B;"/>
			</g>
			<g>
				<path d="M60.246,39.831c0-0.552,0.186-1.032,0.558-1.44c0.372-0.408,0.87-0.612,1.494-0.612      s1.122,0.204,1.494,0.612c0.372,0.408,0.558,0.889,0.558,1.44s-0.186,1.032-0.558,1.439c-0.373,0.408-0.87,0.612-1.494,0.612      s-1.122-0.204-1.494-0.612C60.432,40.863,60.246,40.382,60.246,39.831z M60.678,62.222v-17.28h3.24v17.28H60.678z" style="fill:#FDFCEE;"/>
				<path d="M63.918,62.722h-3.24c-0.276,0-0.5-0.224-0.5-0.5v-17.28c0-0.276,0.224-0.5,0.5-0.5h3.24      c0.276,0,0.5,0.224,0.5,0.5v17.28C64.418,62.498,64.195,62.722,63.918,62.722z M61.178,61.722h2.24v-16.28h-2.24V61.722z       M62.298,42.382c-0.768,0-1.395-0.261-1.863-0.775c-0.457-0.499-0.688-1.097-0.688-1.776c0-0.679,0.232-1.276,0.689-1.777      c0.468-0.515,1.095-0.775,1.863-0.775c0.767,0,1.394,0.261,1.863,0.775c0.458,0.501,0.689,1.1,0.689,1.777      c0,0.679-0.232,1.276-0.689,1.776C63.692,42.121,63.065,42.382,62.298,42.382z M62.298,38.278c-0.481,0-0.849,0.146-1.124,0.449      c-0.288,0.315-0.428,0.676-0.428,1.104s0.14,0.788,0.427,1.102c0.275,0.304,0.643,0.45,1.125,0.45      c0.481,0,0.849-0.147,1.125-0.449c0.288-0.315,0.427-0.676,0.427-1.103s-0.14-0.788-0.428-1.104      C63.147,38.425,62.779,38.278,62.298,38.278z" style="fill:#1F212B;"/>
			</g>
		</g>
		<g>
			<path d="M69.654,82.921h-39c-7.18,0-13-5.82-13-13v-39c0-7.18,5.82-13,13-13h39c7.18,0,13,5.82,13,13v39     C82.654,77.101,76.833,82.921,69.654,82.921z M19.654,30.921v39c0,6.075,4.925,11,11,11h39c6.075,0,11-4.925,11-11v-39     c0-6.075-4.925-11-11-11h-39C24.578,19.921,19.654,24.846,19.654,30.921z" style="fill:#1F212B;"/>
		</g>
	</g>
</g>
<g id="photoshop">
</g>
<g id="presentation">
</g>
<g id="microphone">
</g>
<g id="globe">
</g>
<g id="password">
</g>
<g id="break_link">
</g>
<g id="link">
</g>
<g id="tap">
</g>
<g id="down">
</g>
<g id="top">
</g>
<g id="direction">
</g>
<g id="move">
</g>
<g id="click">
</g>
<g id="point">
</g>
<g id="like">
</g>
<g id="support">
</g>
<g id="wifi">
</g>
<g id="music">
</g>
<g id="more">
</g>
<g id="visible">
</g>
<g id="error">
</g>
<g id="list">
</g>
<g id="grid">
</g>
<g id="favorite">
</g>
<g id="exit">
</g>
<g id="power">
</g>
<g id="delete">
</g>
<g id="msg">
</g>
<g id="info">
</g>
<g id="help">
</g>
<g id="warning">
</g>
<g id="cassete">
</g>
<g id="piano">
</g>
<g id="speaker">
</g>
<g id="attention">
</g>
<g id="crown">
</g>
<g id="prize">
</g>
<g id="medal">
</g>
<g id="alarm">
</g>
<g id="stopper">
</g>
<g id="flag">
</g>
<g id="snapchat">
</g>
<g id="dribbble">
</g>
<g id="flickr">
</g>
<g id="youtube">
</g>
<g id="skype">
</g>
<g id="twitter">
</g>
<g id="instagram">
</g>
<g id="linkedin">
</g>
<g id="vimeo">
</g>
<g id="tumbler">
</g>
<g id="google">
</g>
<g id="whatsapp">
</g>
<g id="facebook">
</g>
<g id="curve">
</g>
<g id="paint_bucket">
</g>
<g id="roller">
</g>
<g id="switch">
</g>
<g id="scissors">
</g>
<g id="picker">
</g>
<g id="brush">
</g>
</svg>
