<?xml version="1.0" encoding="utf-8"?>
<!-- Generator: Adobe Illustrator 21.0.0, SVG Export Plug-In . SVG Version: 6.00 Build 0)  -->
<svg xmlns="http://www.w3.org/2000/svg" xmlns:xlink="http://www.w3.org/1999/xlink" version="1.1" x="0px" y="0px" viewBox="0 0 100 100" style="enable-background:new 0 0 100 100;" xml:space="preserve" width="50px" height="50px">

<g id="wind_sock">
</g>
<g id="umbrella">
</g>
<g id="temperature">
</g>
<g id="snow_rain_night">
</g>
<g id="snow_rain_day">
</g>
<g id="windy_day">
</g>
<g id="windy_night">
</g>
<g id="storm_night">
</g>
<g id="clear_night">
</g>
<g id="snow_night">
</g>
<g id="snow_day">
</g>
<g id="snow_rain">
</g>
<g id="foggy_night">
</g>
<g id="cloudy_night">
</g>
<g id="rain">
</g>
<g id="storm">
</g>
<g id="fog">
</g>
<g id="wind">
</g>
<g id="cloudy">
</g>
<g id="sun">
</g>
<g id="explorer">
</g>
<g id="visio">
</g>
<g id="access">
</g>
<g id="note">
</g>
<g id="outlook">
</g>
<g id="pdf">
</g>
<g id="power_point">
</g>
<g id="exel">
</g>
<g id="word">
</g>
<g id="office">
</g>
<g id="bridge">
</g>
<g id="muse">
</g>
<g id="flash">
</g>
<g id="premiere">
</g>
<g id="after_effects">
</g>
<g id="dreamwever">
</g>
<g id="indesign">
</g>
<g id="lightroom">
	<g>
		<g>
			<g>
				<path d="M69.307,81.921h-39c-6.6,0-12-5.4-12-12v-39c0-6.6,5.4-12,12-12h39c6.6,0,12,5.4,12,12v39      C81.307,76.521,75.907,81.921,69.307,81.921z" style="fill:#4A5397;"/>
				<path d="M69.307,82.921h-39c-7.18,0-13-5.82-13-13v-39c0-7.18,5.82-13,13-13h39c7.18,0,13,5.82,13,13v39      C82.307,77.101,76.487,82.921,69.307,82.921z M19.307,30.921v39c0,6.075,4.925,11,11,11h39c6.075,0,11-4.925,11-11v-39      c0-6.075-4.925-11-11-11h-39C24.232,19.921,19.307,24.846,19.307,30.921z" style="fill:#1F212B;"/>
			</g>
			<path d="M66.469,77.921H33.144c-5.985,0-10.837-4.852-10.837-10.837V33.758c0-5.985,4.852-10.837,10.837-10.837     h33.663c0.276,0,0.5,0.224,0.5,0.5s-0.224,0.5-0.5,0.5H33.144c-5.433,0-9.837,4.404-9.837,9.837v33.325     c0,5.433,4.405,9.838,9.838,9.838H66.47c5.433,0,9.837-4.404,9.837-9.837V48.421c0-0.276,0.224-0.5,0.5-0.5s0.5,0.224,0.5,0.5     v18.662C77.307,73.069,72.455,77.921,66.469,77.921z" style="fill:#1F212B;"/>
			<path d="M76.807,45.5c-0.276,0-0.5-0.224-0.5-0.5v-4c0-0.276,0.224-0.5,0.5-0.5s0.5,0.224,0.5,0.5v4     C77.307,45.277,77.083,45.5,76.807,45.5z" style="fill:#1F212B;"/>
			<path d="M76.807,39.5c-0.276,0-0.5-0.224-0.5-0.5v-2c0-0.276,0.224-0.5,0.5-0.5s0.5,0.224,0.5,0.5v2     C77.307,39.277,77.083,39.5,76.807,39.5z" style="fill:#1F212B;"/>
		</g>
		<g>
			<g>
				<path d="M40.046,38.012v21.275h10.008v2.7h-13.32V38.012H40.046z" style="fill:#FDFCEE;"/>
				<path d="M50.055,62.488h-13.32c-0.276,0-0.5-0.224-0.5-0.5V38.012c0-0.276,0.224-0.5,0.5-0.5h3.312      c0.276,0,0.5,0.224,0.5,0.5v20.775h9.508c0.276,0,0.5,0.224,0.5,0.5v2.7C50.555,62.264,50.331,62.488,50.055,62.488z       M37.234,61.488h12.32v-1.7h-9.508c-0.276,0-0.5-0.224-0.5-0.5V38.512h-2.312V61.488z" style="fill:#1F212B;"/>
			</g>
			<g>
				<path d="M63.266,47.372h-0.828c-1.272,0-2.37,0.24-3.294,0.72c-0.924,0.48-1.71,1.261-2.358,2.341v11.556h-3.24      v-17.28h3.096v3.312c0.504-1.152,1.17-2.028,1.998-2.628s1.926-0.9,3.294-0.9c0.528,0,0.972,0.061,1.332,0.18V47.372z" style="fill:#FDFCEE;"/>
				<path d="M56.786,62.488h-3.24c-0.276,0-0.5-0.224-0.5-0.5v-17.28c0-0.276,0.224-0.5,0.5-0.5h3.096      c0.276,0,0.5,0.224,0.5,0.5v1.463c0.358-0.466,0.761-0.862,1.205-1.184c0.913-0.66,2.119-0.995,3.587-0.995      c0.577,0,1.078,0.069,1.489,0.205c0.205,0.067,0.343,0.259,0.343,0.475v2.7c0,0.276-0.224,0.5-0.5,0.5h-0.828      c-1.185,0-2.215,0.224-3.063,0.663c-0.803,0.418-1.505,1.104-2.088,2.038v11.415C57.286,62.264,57.062,62.488,56.786,62.488z       M54.046,61.488h2.24V50.432c0-0.091,0.024-0.18,0.071-0.257c0.693-1.155,1.553-2.006,2.556-2.527      c0.992-0.516,2.178-0.776,3.524-0.776h0.328v-1.812c-0.242-0.045-0.521-0.067-0.832-0.067c-1.253,0-2.263,0.271-3,0.806      c-0.751,0.544-1.368,1.358-1.833,2.423c-0.094,0.217-0.324,0.344-0.561,0.289c-0.231-0.048-0.397-0.253-0.397-0.489v-2.812      h-2.096V61.488z" style="fill:#1F212B;"/>
			</g>
		</g>
	</g>
</g>
<g id="illustrator">
</g>
<g id="photoshop">
</g>
<g id="presentation">
</g>
<g id="microphone">
</g>
<g id="globe">
</g>
<g id="password">
</g>
<g id="break_link">
</g>
<g id="link">
</g>
<g id="tap">
</g>
<g id="down">
</g>
<g id="top">
</g>
<g id="direction">
</g>
<g id="move">
</g>
<g id="click">
</g>
<g id="point">
</g>
<g id="like">
</g>
<g id="support">
</g>
<g id="wifi">
</g>
<g id="music">
</g>
<g id="more">
</g>
<g id="visible">
</g>
<g id="error">
</g>
<g id="list">
</g>
<g id="grid">
</g>
<g id="favorite">
</g>
<g id="exit">
</g>
<g id="power">
</g>
<g id="delete">
</g>
<g id="msg">
</g>
<g id="info">
</g>
<g id="help">
</g>
<g id="warning">
</g>
<g id="cassete">
</g>
<g id="piano">
</g>
<g id="speaker">
</g>
<g id="attention">
</g>
<g id="crown">
</g>
<g id="prize">
</g>
<g id="medal">
</g>
<g id="alarm">
</g>
<g id="stopper">
</g>
<g id="flag">
</g>
<g id="snapchat">
</g>
<g id="dribbble">
</g>
<g id="flickr">
</g>
<g id="youtube">
</g>
<g id="skype">
</g>
<g id="twitter">
</g>
<g id="instagram">
</g>
<g id="linkedin">
</g>
<g id="vimeo">
</g>
<g id="tumbler">
</g>
<g id="google">
</g>
<g id="whatsapp">
</g>
<g id="facebook">
</g>
<g id="curve">
</g>
<g id="paint_bucket">
</g>
<g id="roller">
</g>
<g id="switch">
</g>
<g id="scissors">
</g>
<g id="picker">
</g>
<g id="brush">
</g>
</svg>
