<?xml version="1.0" encoding="utf-8"?>
<!-- Generator: Adobe Illustrator 21.0.0, SVG Export Plug-In . SVG Version: 6.00 Build 0)  -->
<svg xmlns="http://www.w3.org/2000/svg" xmlns:xlink="http://www.w3.org/1999/xlink" version="1.1" x="0px" y="0px" viewBox="0 0 100 100" style="enable-background:new 0 0 100 100;" xml:space="preserve" width="50px" height="50px">

<g id="wind_sock">
</g>
<g id="umbrella">
</g>
<g id="temperature">
</g>
<g id="snow_rain_night">
</g>
<g id="snow_rain_day">
</g>
<g id="windy_day">
</g>
<g id="windy_night">
</g>
<g id="storm_night">
</g>
<g id="clear_night">
</g>
<g id="snow_night">
</g>
<g id="snow_day">
</g>
<g id="snow_rain">
</g>
<g id="foggy_night">
</g>
<g id="cloudy_night">
</g>
<g id="rain">
</g>
<g id="storm">
</g>
<g id="fog">
</g>
<g id="wind">
</g>
<g id="cloudy">
</g>
<g id="sun">
</g>
<g id="explorer">
</g>
<g id="visio">
</g>
<g id="access">
</g>
<g id="note">
</g>
<g id="outlook">
</g>
<g id="pdf">
</g>
<g id="power_point">
</g>
<g id="exel">
</g>
<g id="word">
</g>
<g id="office">
</g>
<g id="bridge">
</g>
<g id="muse">
</g>
<g id="flash">
</g>
<g id="premiere">
	<g>
		<g>
			<g>
				<path d="M69.921,81.921h-39c-6.6,0-12-5.4-12-12v-39c0-6.6,5.4-12,12-12h39c6.6,0,12,5.4,12,12v39      C81.921,76.521,76.521,81.921,69.921,81.921z" style="fill:#A2A2CC;"/>
				<path d="M69.921,82.921h-39c-7.18,0-13-5.82-13-13v-39c0-7.18,5.82-13,13-13h39c7.18,0,13,5.82,13,13v39      C82.921,77.101,77.101,82.921,69.921,82.921z M19.921,30.921v39c0,6.075,4.925,11,11,11h39c6.075,0,11-4.925,11-11v-39      c0-6.075-4.925-11-11-11h-39C24.846,19.921,19.921,24.846,19.921,30.921z" style="fill:#1F212B;"/>
			</g>
			<path d="M67.083,77.921H33.758c-5.985,0-10.837-4.852-10.837-10.837V33.758c0-5.985,4.852-10.837,10.837-10.837     h33.663c0.276,0,0.5,0.224,0.5,0.5s-0.224,0.5-0.5,0.5H33.758c-5.433,0-9.837,4.404-9.837,9.837v33.325     c0,5.433,4.405,9.838,9.838,9.838h33.324c5.433,0,9.838-4.405,9.838-9.838V48.421c0-0.276,0.224-0.5,0.5-0.5s0.5,0.224,0.5,0.5     v18.662C77.921,73.069,73.069,77.921,67.083,77.921z" style="fill:#1F212B;"/>
			<path d="M77.421,45.5c-0.276,0-0.5-0.224-0.5-0.5v-4c0-0.276,0.224-0.5,0.5-0.5s0.5,0.224,0.5,0.5v4     C77.921,45.277,77.698,45.5,77.421,45.5z" style="fill:#1F212B;"/>
			<path d="M77.421,39.5c-0.276,0-0.5-0.224-0.5-0.5v-2c0-0.276,0.224-0.5,0.5-0.5s0.5,0.224,0.5,0.5v2     C77.921,39.277,77.698,39.5,77.421,39.5z" style="fill:#1F212B;"/>
		</g>
		<g>
			<g>
				<path d="M51.062,45.032c0,1.152-0.253,2.19-0.757,3.114s-1.206,1.71-2.105,2.357      c-0.9,0.648-1.962,1.146-3.187,1.494c-1.224,0.349-2.544,0.522-3.96,0.522h-1.655v9.468h-3.312V38.012h5.796      c1.296,0,2.502,0.144,3.618,0.432s2.088,0.727,2.916,1.313c0.828,0.589,1.476,1.32,1.944,2.196      C50.828,42.831,51.062,43.856,51.062,45.032z M47.75,44.996c0-0.792-0.156-1.458-0.468-1.998      c-0.312-0.54-0.738-0.983-1.278-1.332c-0.54-0.348-1.176-0.6-1.908-0.756c-0.732-0.155-1.506-0.233-2.321-0.233h-2.376v9.18      h1.764c0.96,0,1.842-0.108,2.646-0.324c0.805-0.216,1.5-0.534,2.089-0.954c0.587-0.42,1.044-0.93,1.367-1.53      C47.588,46.448,47.75,45.764,47.75,44.996z" style="fill:#FDFCEE;"/>
				<path d="M39.399,62.488h-3.312c-0.276,0-0.5-0.224-0.5-0.5V38.012c0-0.276,0.224-0.5,0.5-0.5h5.796      c1.333,0,2.593,0.15,3.743,0.447c1.168,0.302,2.204,0.77,3.08,1.39c0.888,0.632,1.593,1.429,2.096,2.368      c0.506,0.947,0.762,2.062,0.762,3.314c0,1.23-0.275,2.358-0.818,3.354c-0.537,0.986-1.295,1.835-2.252,2.524      c-0.943,0.68-2.068,1.207-3.342,1.569c-1.261,0.358-2.64,0.541-4.097,0.541h-1.155v8.968      C39.899,62.264,39.675,62.488,39.399,62.488z M36.586,61.488h2.312V52.52c0-0.276,0.224-0.5,0.5-0.5h1.655      c1.364,0,2.65-0.169,3.823-0.503c1.162-0.33,2.182-0.808,3.031-1.419c0.834-0.601,1.493-1.338,1.959-2.191      c0.461-0.847,0.695-1.813,0.695-2.875c0-1.086-0.217-2.043-0.644-2.843c-0.429-0.803-1.032-1.483-1.793-2.024      c-0.775-0.549-1.701-0.966-2.751-1.236c-1.069-0.276-2.244-0.416-3.493-0.416h-5.296V61.488z M41.162,50.356h-1.764      c-0.276,0-0.5-0.224-0.5-0.5v-9.18c0-0.276,0.224-0.5,0.5-0.5h2.376c0.845,0,1.66,0.082,2.425,0.244      c0.789,0.168,1.486,0.445,2.075,0.824c0.605,0.392,1.09,0.896,1.44,1.503c0.355,0.615,0.535,1.371,0.535,2.248      c0,0.849-0.184,1.619-0.547,2.29c-0.356,0.662-0.866,1.234-1.516,1.698c-0.637,0.454-1.394,0.801-2.25,1.031      C43.094,50.241,42.161,50.356,41.162,50.356z M39.899,49.356h1.264c0.91,0,1.757-0.104,2.516-0.307      c0.741-0.199,1.39-0.495,1.929-0.879c0.523-0.374,0.933-0.832,1.217-1.36c0.283-0.523,0.427-1.134,0.427-1.814      c0-0.699-0.135-1.287-0.401-1.748c-0.273-0.474-0.639-0.854-1.116-1.162c-0.485-0.312-1.072-0.544-1.741-0.687      c-0.695-0.147-1.441-0.223-2.217-0.223h-1.876V49.356z" style="fill:#1F212B;"/>
			</g>
			<g>
				<path d="M63.914,47.372h-0.828c-1.272,0-2.37,0.24-3.294,0.72c-0.924,0.48-1.71,1.261-2.357,2.341v11.556h-3.24      v-17.28h3.096v3.312c0.504-1.152,1.17-2.028,1.998-2.628s1.926-0.9,3.294-0.9c0.527,0,0.972,0.061,1.332,0.18V47.372z" style="fill:#FDFCEE;"/>
				<path d="M57.435,62.488h-3.24c-0.276,0-0.5-0.224-0.5-0.5v-17.28c0-0.276,0.224-0.5,0.5-0.5h3.096      c0.276,0,0.5,0.224,0.5,0.5v1.463c0.358-0.466,0.761-0.862,1.205-1.184c0.912-0.66,2.119-0.995,3.587-0.995      c0.577,0,1.078,0.069,1.489,0.205c0.204,0.067,0.343,0.259,0.343,0.475v2.7c0,0.276-0.224,0.5-0.5,0.5h-0.828      c-1.185,0-2.216,0.224-3.063,0.663c-0.804,0.418-1.506,1.104-2.088,2.038v11.415C57.935,62.264,57.711,62.488,57.435,62.488z       M54.695,61.488h2.24V50.432c0-0.091,0.024-0.18,0.071-0.257c0.692-1.155,1.552-2.006,2.556-2.527      c0.992-0.516,2.178-0.776,3.524-0.776h0.328V45.06c-0.242-0.046-0.521-0.068-0.832-0.068c-1.253,0-2.263,0.271-3.001,0.806      c-0.751,0.544-1.367,1.358-1.833,2.423c-0.096,0.217-0.333,0.34-0.561,0.289c-0.231-0.048-0.397-0.253-0.397-0.489v-2.812      h-2.096V61.488z" style="fill:#1F212B;"/>
			</g>
		</g>
	</g>
</g>
<g id="after_effects">
</g>
<g id="dreamwever">
</g>
<g id="indesign">
</g>
<g id="lightroom">
</g>
<g id="illustrator">
</g>
<g id="photoshop">
</g>
<g id="presentation">
</g>
<g id="microphone">
</g>
<g id="globe">
</g>
<g id="password">
</g>
<g id="break_link">
</g>
<g id="link">
</g>
<g id="tap">
</g>
<g id="down">
</g>
<g id="top">
</g>
<g id="direction">
</g>
<g id="move">
</g>
<g id="click">
</g>
<g id="point">
</g>
<g id="like">
</g>
<g id="support">
</g>
<g id="wifi">
</g>
<g id="music">
</g>
<g id="more">
</g>
<g id="visible">
</g>
<g id="error">
</g>
<g id="list">
</g>
<g id="grid">
</g>
<g id="favorite">
</g>
<g id="exit">
</g>
<g id="power">
</g>
<g id="delete">
</g>
<g id="msg">
</g>
<g id="info">
</g>
<g id="help">
</g>
<g id="warning">
</g>
<g id="cassete">
</g>
<g id="piano">
</g>
<g id="speaker">
</g>
<g id="attention">
</g>
<g id="crown">
</g>
<g id="prize">
</g>
<g id="medal">
</g>
<g id="alarm">
</g>
<g id="stopper">
</g>
<g id="flag">
</g>
<g id="snapchat">
</g>
<g id="dribbble">
</g>
<g id="flickr">
</g>
<g id="youtube">
</g>
<g id="skype">
</g>
<g id="twitter">
</g>
<g id="instagram">
</g>
<g id="linkedin">
</g>
<g id="vimeo">
</g>
<g id="tumbler">
</g>
<g id="google">
</g>
<g id="whatsapp">
</g>
<g id="facebook">
</g>
<g id="curve">
</g>
<g id="paint_bucket">
</g>
<g id="roller">
</g>
<g id="switch">
</g>
<g id="scissors">
</g>
<g id="picker">
</g>
<g id="brush">
</g>
</svg>
