<?xml version="1.0" encoding="utf-8"?>
<!-- Generator: Adobe Illustrator 21.0.0, SVG Export Plug-In . SVG Version: 6.00 Build 0)  -->
<svg xmlns="http://www.w3.org/2000/svg" xmlns:xlink="http://www.w3.org/1999/xlink" version="1.1" x="0px" y="0px" viewBox="0 0 100 100" style="enable-background:new 0 0 100 100;" xml:space="preserve" width="50px" height="50px">

<g id="wind_sock">
</g>
<g id="umbrella">
</g>
<g id="temperature">
</g>
<g id="snow_rain_night">
</g>
<g id="snow_rain_day">
</g>
<g id="windy_day">
</g>
<g id="windy_night">
</g>
<g id="storm_night">
</g>
<g id="clear_night">
</g>
<g id="snow_night">
</g>
<g id="snow_day">
</g>
<g id="snow_rain">
</g>
<g id="foggy_night">
</g>
<g id="cloudy_night">
</g>
<g id="rain">
</g>
<g id="storm">
</g>
<g id="fog">
</g>
<g id="wind">
</g>
<g id="cloudy">
</g>
<g id="sun">
</g>
<g id="explorer">
</g>
<g id="visio">
</g>
<g id="access">
</g>
<g id="note">
</g>
<g id="outlook">
</g>
<g id="pdf">
</g>
<g id="power_point">
</g>
<g id="exel">
</g>
<g id="word">
</g>
<g id="office">
</g>
<g id="bridge">
</g>
<g id="muse">
</g>
<g id="flash">
</g>
<g id="premiere">
</g>
<g id="after_effects">
</g>
<g id="dreamwever">
</g>
<g id="indesign">
	<g>
		<g>
			<g>
				<path d="M69.961,81.921h-39c-6.6,0-12-5.4-12-12v-39c0-6.6,5.4-12,12-12h39c6.6,0,12,5.4,12,12v39      C81.961,76.521,76.561,81.921,69.961,81.921z" style="fill:#F27E97;"/>
				<path d="M69.961,82.921h-39c-7.18,0-13-5.82-13-13v-39c0-7.18,5.82-13,13-13h39c7.18,0,13,5.82,13,13v39      C82.961,77.101,77.14,82.921,69.961,82.921z M19.961,30.921v39c0,6.075,4.925,11,11,11h39c6.075,0,11-4.925,11-11v-39      c0-6.075-4.925-11-11-11h-39C24.885,19.921,19.961,24.846,19.961,30.921z" style="fill:#1F212B;"/>
			</g>
			<path d="M67.123,77.921H33.798c-5.985,0-10.837-4.852-10.837-10.837V33.758c0-5.985,4.852-10.837,10.837-10.837     h33.663c0.276,0,0.5,0.224,0.5,0.5s-0.224,0.5-0.5,0.5H33.798c-5.433,0-9.837,4.404-9.837,9.837v33.325     c0,5.433,4.405,9.838,9.838,9.838h33.325c5.433,0,9.837-4.404,9.837-9.837V48.421c0-0.276,0.224-0.5,0.5-0.5s0.5,0.224,0.5,0.5     v18.662C77.961,73.069,73.108,77.921,67.123,77.921z" style="fill:#1F212B;"/>
			<path d="M77.461,45.5c-0.276,0-0.5-0.224-0.5-0.5v-4c0-0.276,0.224-0.5,0.5-0.5s0.5,0.224,0.5,0.5v4     C77.961,45.277,77.737,45.5,77.461,45.5z" style="fill:#1F212B;"/>
			<path d="M77.461,39.5c-0.276,0-0.5-0.224-0.5-0.5v-2c0-0.276,0.224-0.5,0.5-0.5s0.5,0.224,0.5,0.5v2     C77.961,39.277,77.737,39.5,77.461,39.5z" style="fill:#1F212B;"/>
		</g>
		<g>
			<g>
				<path d="M41.684,62.528h-3.312V38.552h3.312V62.528z" style="fill:#FDFCEE;"/>
				<path d="M41.684,63.028h-3.312c-0.276,0-0.5-0.224-0.5-0.5V38.552c0-0.276,0.224-0.5,0.5-0.5h3.312      c0.276,0,0.5,0.224,0.5,0.5v23.976C42.184,62.804,41.961,63.028,41.684,63.028z M38.872,62.028h2.312V39.052h-2.312V62.028z" style="fill:#1F212B;"/>
			</g>
			<g>
				<path d="M61.628,62.528h-3.06v-2.376c-0.648,0.769-1.428,1.416-2.34,1.944c-0.912,0.527-2.016,0.792-3.312,0.792      c-1.008,0-1.92-0.217-2.736-0.649c-0.816-0.434-1.524-1.046-2.124-1.84c-0.6-0.793-1.062-1.731-1.386-2.813      c-0.324-1.083-0.486-2.272-0.486-3.571c0-1.442,0.222-2.735,0.666-3.878c0.444-1.142,1.062-2.104,1.854-2.886      c0.792-0.781,1.722-1.377,2.79-1.785c1.067-0.409,2.226-0.613,3.474-0.613c0.696,0,1.314,0.043,1.854,0.128      s1.062,0.2,1.566,0.347v-8.215h3.24V62.528z M53.816,60.26c1.032,0,1.932-0.251,2.7-0.754c0.768-0.503,1.392-1.041,1.872-1.616      v-9.943c-0.408-0.168-0.876-0.287-1.404-0.359c-0.528-0.071-1.08-0.107-1.656-0.107c-1.8,0-3.234,0.562-4.302,1.688      c-1.068,1.125-1.602,2.74-1.602,4.846c0,1.892,0.354,3.405,1.062,4.542C51.194,59.692,52.304,60.26,53.816,60.26z" style="fill:#FDFCEE;"/>
				<path d="M52.916,63.388c-1.086,0-2.085-0.238-2.97-0.708c-0.879-0.467-1.649-1.133-2.289-1.979      c-0.632-0.836-1.126-1.836-1.466-2.972c-0.336-1.125-0.507-2.375-0.507-3.715c0-1.499,0.235-2.864,0.7-4.06      c0.467-1.201,1.129-2.231,1.968-3.06c0.839-0.828,1.836-1.466,2.963-1.896c1.118-0.429,2.347-0.646,3.652-0.646      c0.717,0,1.367,0.045,1.932,0.134c0.335,0.053,0.666,0.117,0.988,0.193v-7.567c0-0.276,0.224-0.5,0.5-0.5h3.24      c0.276,0,0.5,0.224,0.5,0.5v25.416c0,0.276-0.224,0.5-0.5,0.5h-3.06c-0.276,0-0.5-0.224-0.5-0.5v-1.146      c-0.48,0.429-1.012,0.812-1.59,1.147C55.492,63.099,54.294,63.388,52.916,63.388z M54.968,45.352      c-1.182,0-2.291,0.195-3.295,0.58c-0.998,0.381-1.878,0.944-2.618,1.675c-0.738,0.729-1.323,1.641-1.739,2.711      c-0.419,1.078-0.632,2.321-0.632,3.696c0,1.243,0.156,2.396,0.465,3.428c0.306,1.021,0.745,1.914,1.306,2.655      c0.551,0.73,1.21,1.303,1.959,1.7c0.739,0.392,1.581,0.591,2.501,0.591c1.2,0,2.23-0.244,3.062-0.725      c0.858-0.497,1.601-1.114,2.208-1.834c0.137-0.161,0.358-0.22,0.554-0.147c0.197,0.072,0.328,0.26,0.328,0.47v1.876h2.06V37.612      h-2.24v7.715c0,0.157-0.074,0.306-0.2,0.399c-0.127,0.095-0.291,0.122-0.44,0.081c-0.479-0.14-0.985-0.252-1.504-0.333      C56.23,45.393,55.633,45.352,54.968,45.352z M53.816,60.76c-1.689,0-2.953-0.653-3.754-1.94      c-0.755-1.211-1.138-2.828-1.138-4.807c0-2.229,0.585-3.975,1.739-5.19c1.161-1.223,2.73-1.843,4.665-1.843      c0.593,0,1.173,0.038,1.723,0.112c0.571,0.078,1.084,0.21,1.527,0.393c0.187,0.076,0.31,0.259,0.31,0.462v9.943      c0,0.117-0.041,0.23-0.116,0.32c-0.509,0.609-1.176,1.187-1.982,1.714C55.943,60.479,54.942,60.76,53.816,60.76z M55.328,47.98      c-1.673,0-2.961,0.501-3.939,1.531c-0.972,1.024-1.465,2.538-1.465,4.502c0,1.788,0.332,3.228,0.986,4.277      c0.616,0.989,1.566,1.47,2.905,1.47c0.928,0,1.745-0.227,2.426-0.672c0.662-0.434,1.215-0.898,1.646-1.384v-9.408      c-0.292-0.094-0.617-0.165-0.972-0.214C56.411,48.014,55.876,47.98,55.328,47.98z" style="fill:#1F212B;"/>
			</g>
		</g>
	</g>
</g>
<g id="lightroom">
</g>
<g id="illustrator">
</g>
<g id="photoshop">
</g>
<g id="presentation">
</g>
<g id="microphone">
</g>
<g id="globe">
</g>
<g id="password">
</g>
<g id="break_link">
</g>
<g id="link">
</g>
<g id="tap">
</g>
<g id="down">
</g>
<g id="top">
</g>
<g id="direction">
</g>
<g id="move">
</g>
<g id="click">
</g>
<g id="point">
</g>
<g id="like">
</g>
<g id="support">
</g>
<g id="wifi">
</g>
<g id="music">
</g>
<g id="more">
</g>
<g id="visible">
</g>
<g id="error">
</g>
<g id="list">
</g>
<g id="grid">
</g>
<g id="favorite">
</g>
<g id="exit">
</g>
<g id="power">
</g>
<g id="delete">
</g>
<g id="msg">
</g>
<g id="info">
</g>
<g id="help">
</g>
<g id="warning">
</g>
<g id="cassete">
</g>
<g id="piano">
</g>
<g id="speaker">
</g>
<g id="attention">
</g>
<g id="crown">
</g>
<g id="prize">
</g>
<g id="medal">
</g>
<g id="alarm">
</g>
<g id="stopper">
</g>
<g id="flag">
</g>
<g id="snapchat">
</g>
<g id="dribbble">
</g>
<g id="flickr">
</g>
<g id="youtube">
</g>
<g id="skype">
</g>
<g id="twitter">
</g>
<g id="instagram">
</g>
<g id="linkedin">
</g>
<g id="vimeo">
</g>
<g id="tumbler">
</g>
<g id="google">
</g>
<g id="whatsapp">
</g>
<g id="facebook">
</g>
<g id="curve">
</g>
<g id="paint_bucket">
</g>
<g id="roller">
</g>
<g id="switch">
</g>
<g id="scissors">
</g>
<g id="picker">
</g>
<g id="brush">
</g>
</svg>
