<?xml version="1.0" encoding="utf-8"?>
<!-- Generator: Adobe Illustrator 21.0.0, SVG Export Plug-In . SVG Version: 6.00 Build 0)  -->
<svg xmlns="http://www.w3.org/2000/svg" xmlns:xlink="http://www.w3.org/1999/xlink" version="1.1" x="0px" y="0px" viewBox="0 0 100 100" style="enable-background:new 0 0 100 100;" xml:space="preserve" width="50px" height="50px">

<g id="wind_sock">
</g>
<g id="umbrella">
</g>
<g id="temperature">
</g>
<g id="snow_rain_night">
</g>
<g id="snow_rain_day">
</g>
<g id="windy_day">
</g>
<g id="windy_night">
</g>
<g id="storm_night">
</g>
<g id="clear_night">
</g>
<g id="snow_night">
</g>
<g id="snow_day">
</g>
<g id="snow_rain">
</g>
<g id="foggy_night">
</g>
<g id="cloudy_night">
</g>
<g id="rain">
</g>
<g id="storm">
</g>
<g id="fog">
</g>
<g id="wind">
</g>
<g id="cloudy">
</g>
<g id="sun">
</g>
<g id="explorer">
</g>
<g id="visio">
</g>
<g id="access">
</g>
<g id="note">
</g>
<g id="outlook">
</g>
<g id="pdf">
	<g>
		<g>
			<g>
				<path d="M69.614,81.575h-39c-6.6,0-12-5.4-12-12v-39c0-6.6,5.4-12,12-12h39c6.6,0,12,5.4,12,12v39      C81.614,76.175,76.214,81.575,69.614,81.575z" style="fill:#EE538F;"/>
				<path d="M69.614,82.575h-39c-7.18,0-13-5.82-13-13v-39c0-7.18,5.82-13,13-13h39c7.18,0,13,5.82,13,13v39      C82.614,76.755,76.794,82.575,69.614,82.575z M19.614,30.575v39c0,6.075,4.925,11,11,11h39c6.075,0,11-4.925,11-11v-39      c0-6.075-4.925-11-11-11h-39C24.539,19.575,19.614,24.5,19.614,30.575z" style="fill:#1F212B;"/>
			</g>
			<path d="M66.493,76.575H32.735c-5.566,0-10.121-4.554-10.121-10.121V32.696c0-5.566,4.554-10.121,10.121-10.121     h33.759c5.566,0,10.121,4.554,10.121,10.121v33.759C76.614,72.02,72.06,76.575,66.493,76.575z" style="fill:#FDFCEE;"/>
			<path d="M66.777,77.575H33.452c-5.985,0-10.837-4.852-10.837-10.837V33.413c0-5.986,4.852-10.838,10.838-10.838     h33.662c0.276,0,0.5,0.224,0.5,0.5s-0.224,0.5-0.5,0.5H33.452c-5.433,0-9.837,4.404-9.837,9.837v33.326     c0,5.433,4.404,9.837,9.837,9.837h33.326c5.433,0,9.837-4.404,9.837-9.837V48.075c0-0.276,0.224-0.5,0.5-0.5s0.5,0.224,0.5,0.5     v18.663C77.614,72.723,72.762,77.575,66.777,77.575z" style="fill:#1F212B;"/>
			<path d="M77.114,45.5c-0.276,0-0.5-0.224-0.5-0.5v-4c0-0.276,0.224-0.5,0.5-0.5s0.5,0.224,0.5,0.5v4     C77.614,45.276,77.391,45.5,77.114,45.5z" style="fill:#1F212B;"/>
			<path d="M77.114,39.5c-0.276,0-0.5-0.224-0.5-0.5v-2c0-0.276,0.224-0.5,0.5-0.5s0.5,0.224,0.5,0.5v2     C77.614,39.276,77.391,39.5,77.114,39.5z" style="fill:#1F212B;"/>
		</g>
		<g>
			<path d="M33.861,67.526c-1.024,0-1.546-0.534-1.81-1.026c-0.33-0.617-0.401-1.434-0.2-2.302     c0.221-0.988,0.767-1.886,1.716-2.813c1.157-1.126,2.87-2.272,4.825-3.226c0.965-0.469,2.104-0.947,3.331-1.404     c1.432-2.237,3.458-5.724,4.914-9.555c0.16-0.421,0.312-0.843,0.456-1.264c-0.45-1.044-0.729-1.938-0.946-2.71     c-0.4-1.418-0.656-2.697-0.761-3.801c-0.104-1.083-0.084-2.154,0.058-3.185c0.139-1.037,0.376-1.778,0.745-2.33     c0.367-0.544,0.901-0.956,1.549-1.195c0.358-0.136,0.635-0.166,0.8-0.185c0.287-0.045,0.683-0.113,1.187,0.037     c0.336,0.098,0.668,0.289,0.96,0.456l-0.003,0.006c1.503,0.661,1.356,1.95,1.171,3.579l-0.081,0.732     c-0.208,1.959-0.803,5.13-1.843,8.43c0.072,0.146,0.149,0.295,0.23,0.447c0.787,1.477,1.923,3.172,3.283,4.899     c0.627,0.792,1.347,1.645,2.095,2.485c1.206-0.081,2.404-0.072,3.561,0.025c1.187,0.096,2.428,0.293,3.58,0.567     c1.288,0.316,2.214,0.681,3.01,1.182c1.014,0.635,1.799,1.488,2.206,2.402c0.472,1.042,0.489,2.229,0.043,3.172     c-0.398,0.845-1.162,1.468-2.206,1.8c-0.928,0.301-1.91,0.306-2.908,0.008c-0.923-0.276-1.996-0.845-3.19-1.695     c-1.185-0.835-2.306-1.797-3.63-3.117c-0.501-0.498-1.019-1.037-1.535-1.593c-0.825,0.095-1.76,0.242-2.95,0.457     c-1.455,0.261-3.097,0.59-5.246,1.222c-0.945,0.276-1.901,0.585-2.818,0.909c-0.113,0.171-0.221,0.332-0.323,0.483     c-1.853,2.744-3.667,4.904-5.246,6.249c-1.205,1.021-2.328,1.61-3.435,1.8C34.238,67.509,34.041,67.526,33.861,67.526z      M38.729,60.956c-1.792,0.965-2.829,1.848-3.315,2.322c-0.705,0.689-0.898,1.144-0.976,1.468     c0.409-0.145,0.971-0.439,1.737-1.087C36.782,63.141,37.64,62.299,38.729,60.956z M58.001,56.206     c1.156,1.141,2.136,1.978,3.159,2.7c1.197,0.852,1.975,1.187,2.416,1.319c0.488,0.145,0.918,0.145,1.348,0.008     c0.192-0.061,0.52-0.192,0.623-0.411c0.091-0.196,0.109-0.575-0.064-0.96c-0.196-0.441-0.632-0.891-1.2-1.246     c-0.55-0.347-1.235-0.608-2.226-0.852c-1.015-0.243-2.117-0.418-3.177-0.503C58.59,56.236,58.297,56.217,58.001,56.206z      M48.749,49.053c-0.963,2.367-2.103,4.575-3.162,6.425c2.246-0.658,4.021-1.01,5.462-1.269c0.475-0.086,0.913-0.162,1.321-0.229     c-0.351-0.418-0.687-0.829-1.002-1.227C50.373,51.491,49.486,50.236,48.749,49.053z M48.964,35.14     c-0.229,0.027-0.244,0.029-0.3,0.05c-0.137,0.051-0.228,0.114-0.281,0.192c-0.072,0.108-0.212,0.414-0.32,1.213     c-0.113,0.821-0.128,1.711-0.046,2.577c0.062,0.647,0.188,1.377,0.376,2.178c0.388-1.693,0.635-3.195,0.751-4.29l0.084-0.751     c0.043-0.377,0.086-0.763,0.102-1.019c-0.127-0.073-0.257-0.155-0.37-0.195c0.063,0.019,0.142,0.021,0.177,0.016L48.964,35.14z" style="fill:#EE538F;"/>
			<path d="M49.096,32.474c0.187,0,0.396,0.023,0.629,0.092c0.336,0.098,0.668,0.289,0.96,0.456l-0.003,0.006     c1.503,0.661,1.356,1.95,1.171,3.579l-0.081,0.732c-0.208,1.959-0.803,5.13-1.843,8.43c0.072,0.146,0.149,0.295,0.23,0.447     c0.787,1.477,1.923,3.172,3.283,4.899c0.627,0.792,1.347,1.645,2.095,2.485c0.545-0.037,1.088-0.055,1.627-0.055     c0.654,0,1.3,0.027,1.935,0.081c1.187,0.096,2.428,0.293,3.58,0.567c1.288,0.316,2.214,0.681,3.01,1.182     c1.014,0.635,1.799,1.488,2.206,2.402c0.472,1.042,0.489,2.229,0.043,3.172c-0.398,0.845-1.162,1.468-2.206,1.8     c-0.469,0.152-0.952,0.229-1.444,0.229c-0.481,0-0.97-0.073-1.464-0.22c-0.923-0.276-1.996-0.845-3.19-1.695     c-1.185-0.835-2.306-1.797-3.63-3.117c-0.501-0.498-1.019-1.037-1.535-1.593c-0.825,0.095-1.76,0.242-2.95,0.457     c-1.455,0.261-3.097,0.59-5.246,1.222c-0.945,0.276-1.901,0.585-2.818,0.909c-0.113,0.171-0.221,0.332-0.323,0.483     c-1.853,2.744-3.667,4.905-5.246,6.249c-1.205,1.021-2.328,1.61-3.435,1.8c-0.213,0.036-0.409,0.053-0.589,0.053     c-1.024,0-1.546-0.534-1.81-1.026c-0.33-0.617-0.401-1.434-0.2-2.302c0.221-0.988,0.767-1.886,1.716-2.813     c1.157-1.126,2.87-2.272,4.825-3.226c0.965-0.469,2.104-0.947,3.331-1.404c1.432-2.237,3.458-5.724,4.914-9.555     c0.16-0.421,0.312-0.843,0.456-1.264c-0.451-1.044-0.729-1.938-0.946-2.71c-0.399-1.418-0.656-2.697-0.761-3.801     c-0.104-1.083-0.084-2.154,0.058-3.185c0.139-1.037,0.376-1.778,0.745-2.33c0.367-0.544,0.901-0.956,1.549-1.195     c0.358-0.136,0.635-0.166,0.8-0.185C48.692,32.505,48.878,32.474,49.096,32.474 M49.036,35.129l-0.072,0.012     c-0.229,0.027-0.244,0.029-0.3,0.05c-0.137,0.051-0.228,0.114-0.281,0.192c-0.072,0.108-0.212,0.414-0.32,1.213     c-0.113,0.821-0.128,1.711-0.046,2.577c0.062,0.647,0.188,1.377,0.376,2.178c0.388-1.693,0.635-3.195,0.751-4.29l0.084-0.75     c0.043-0.377,0.086-0.763,0.102-1.019C49.231,35.234,49.129,35.172,49.036,35.129l0.099-0.016c0,0,0,0,0,0l0,0     c-0.01,0.002-0.025,0.003-0.041,0.003c-0.039,0-0.091-0.005-0.135-0.018C48.984,35.106,49.01,35.116,49.036,35.129      M45.587,55.478c2.246-0.658,4.021-1.01,5.462-1.269c0.475-0.086,0.912-0.162,1.321-0.229c-0.351-0.418-0.687-0.829-1.002-1.227     c-0.996-1.263-1.883-2.517-2.619-3.7C47.786,51.42,46.646,53.628,45.587,55.478 M64.283,60.334c0.219,0,0.431-0.034,0.642-0.101     c0.192-0.061,0.52-0.192,0.623-0.411c0.091-0.196,0.109-0.575-0.064-0.96c-0.196-0.441-0.632-0.891-1.2-1.246     c-0.55-0.347-1.235-0.608-2.226-0.852c-1.015-0.243-2.117-0.418-3.177-0.503c-0.29-0.025-0.584-0.043-0.879-0.054     c1.156,1.141,2.136,1.978,3.159,2.7c1.197,0.852,1.975,1.187,2.416,1.319C63.825,60.298,64.057,60.334,64.283,60.334      M38.729,60.956c-1.792,0.965-2.829,1.848-3.315,2.322c-0.705,0.689-0.898,1.144-0.976,1.468     c0.409-0.145,0.971-0.439,1.737-1.087C36.782,63.141,37.64,62.299,38.729,60.956 M49.096,31.474     c-0.286,0-0.521,0.037-0.693,0.064c-0.183,0.021-0.55,0.063-1.02,0.241c-0.837,0.309-1.54,0.854-2.023,1.572     c-0.459,0.686-0.746,1.561-0.907,2.756c-0.152,1.106-0.173,2.255-0.062,3.413c0.111,1.161,0.378,2.5,0.794,3.977     c0.18,0.642,0.435,1.486,0.838,2.473c-0.103,0.292-0.209,0.583-0.32,0.875c-1.364,3.588-3.245,6.879-4.644,9.092     c-1.154,0.438-2.196,0.883-3.103,1.323c-2.048,0.999-3.854,2.21-5.086,3.409c-1.095,1.069-1.728,2.121-1.995,3.311     c-0.255,1.097-0.151,2.162,0.294,2.993c0.538,1.002,1.494,1.553,2.692,1.553c0.242,0,0.497-0.022,0.757-0.067     c1.289-0.222,2.569-0.884,3.914-2.023c1.65-1.406,3.526-3.637,5.428-6.453l0.14-0.209c0.817-0.283,1.641-0.546,2.453-0.783     c2.105-0.618,3.715-0.941,5.142-1.197c0.948-0.172,1.722-0.297,2.391-0.386c0.42,0.445,0.826,0.863,1.211,1.247     c1.363,1.358,2.522,2.353,3.759,3.226c1.277,0.909,2.449,1.527,3.48,1.836c0.584,0.174,1.173,0.262,1.75,0.262     c0.595,0,1.185-0.093,1.752-0.277c1.312-0.417,2.283-1.222,2.803-2.326c0.569-1.202,0.556-2.701-0.036-4.01     c-0.484-1.088-1.404-2.098-2.586-2.838c-0.89-0.56-1.909-0.963-3.302-1.305c-1.208-0.288-2.499-0.493-3.738-0.593     c-0.657-0.056-1.336-0.084-2.015-0.084c-0.397,0-0.798,0.01-1.199,0.029c-0.624-0.712-1.22-1.424-1.738-2.079     c-1.323-1.679-2.425-3.322-3.185-4.748c-0.012-0.023-0.025-0.047-0.037-0.07c1-3.273,1.565-6.376,1.762-8.231l0.08-0.729     c0.181-1.593,0.406-3.571-1.643-4.549c-0.007-0.004-0.014-0.009-0.022-0.013c-0.329-0.189-0.73-0.418-1.178-0.549     C49.709,31.518,49.409,31.474,49.096,31.474L49.096,31.474z M47.588,53.907c0.486-0.93,0.936-1.85,1.347-2.756     c0.489,0.703,1.018,1.418,1.582,2.138C49.661,53.446,48.692,53.64,47.588,53.907L47.588,53.907z M64.283,59.334     c-0.128,0-0.266-0.022-0.422-0.068c-0.301-0.09-0.978-0.362-2.121-1.175c-0.239-0.169-0.475-0.344-0.712-0.527     c0.27,0.052,0.536,0.11,0.796,0.172c0.877,0.215,1.473,0.439,1.926,0.725c0.472,0.295,0.732,0.61,0.82,0.806     c0.004,0.008,0.007,0.017,0.011,0.025C64.48,59.32,64.382,59.334,64.283,59.334L64.283,59.334z" style="fill:#1F212B;"/>
		</g>
	</g>
</g>
<g id="power_point">
</g>
<g id="exel">
</g>
<g id="word">
</g>
<g id="office">
</g>
<g id="bridge">
</g>
<g id="muse">
</g>
<g id="flash">
</g>
<g id="premiere">
</g>
<g id="after_effects">
</g>
<g id="dreamwever">
</g>
<g id="indesign">
</g>
<g id="lightroom">
</g>
<g id="illustrator">
</g>
<g id="photoshop">
</g>
<g id="presentation">
</g>
<g id="microphone">
</g>
<g id="globe">
</g>
<g id="password">
</g>
<g id="break_link">
</g>
<g id="link">
</g>
<g id="tap">
</g>
<g id="down">
</g>
<g id="top">
</g>
<g id="direction">
</g>
<g id="move">
</g>
<g id="click">
</g>
<g id="point">
</g>
<g id="like">
</g>
<g id="support">
</g>
<g id="wifi">
</g>
<g id="music">
</g>
<g id="more">
</g>
<g id="visible">
</g>
<g id="error">
</g>
<g id="list">
</g>
<g id="grid">
</g>
<g id="favorite">
</g>
<g id="exit">
</g>
<g id="power">
</g>
<g id="delete">
</g>
<g id="msg">
</g>
<g id="info">
</g>
<g id="help">
</g>
<g id="warning">
</g>
<g id="cassete">
</g>
<g id="piano">
</g>
<g id="speaker">
</g>
<g id="attention">
</g>
<g id="crown">
</g>
<g id="prize">
</g>
<g id="medal">
</g>
<g id="alarm">
</g>
<g id="stopper">
</g>
<g id="flag">
</g>
<g id="snapchat">
</g>
<g id="dribbble">
</g>
<g id="flickr">
</g>
<g id="youtube">
</g>
<g id="skype">
</g>
<g id="twitter">
</g>
<g id="instagram">
</g>
<g id="linkedin">
</g>
<g id="vimeo">
</g>
<g id="tumbler">
</g>
<g id="google">
</g>
<g id="whatsapp">
</g>
<g id="facebook">
</g>
<g id="curve">
</g>
<g id="paint_bucket">
</g>
<g id="roller">
</g>
<g id="switch">
</g>
<g id="scissors">
</g>
<g id="picker">
</g>
<g id="brush">
</g>
</svg>
