<?xml version="1.0" encoding="utf-8"?>
<!-- Generator: Adobe Illustrator 22.1.0, SVG Export Plug-In . SVG Version: 6.00 Build 0)  -->
<svg version="1.1" id="Layer_1" xmlns="http://www.w3.org/2000/svg" xmlns:xlink="http://www.w3.org/1999/xlink" x="0px" y="0px"
	 viewBox="0 0 50 50" style="enable-background:new 0 0 50 50;" xml:space="preserve">
<style type="text/css">
	.st0{fill:#FF6D00;}
	.st1{fill:#1F212B;}
	.st2{fill:#FFFFFF;stroke:#1F212B;stroke-width:0.45;stroke-miterlimit:10;}
</style>
<g id="wind_sock">
</g>
<g id="umbrella">
</g>
<g id="temperature">
</g>
<g id="snow_rain_night">
</g>
<g id="snow_rain_day">
</g>
<g id="windy_day">
</g>
<g id="windy_night">
</g>
<g id="storm_night">
</g>
<g id="clear_night">
</g>
<g id="snow_night">
</g>
<g id="snow_day">
</g>
<g id="snow_rain">
</g>
<g id="foggy_night">
</g>
<g id="cloudy_night">
</g>
<g id="rain">
</g>
<g id="storm">
</g>
<g id="fog">
</g>
<g id="wind">
</g>
<g id="cloudy">
</g>
<g id="sun">
</g>
<g id="explorer">
</g>
<g id="visio">
</g>
<g id="access">
</g>
<g id="note">
</g>
<g id="outlook">
</g>
<g id="pdf">
</g>
<g id="power_point">
</g>
<g id="exel">
</g>
<g id="word">
</g>
<g id="office">
</g>
<g id="bridge">
</g>
<g id="muse">
</g>
<g id="flash">
</g>
<g id="premiere">
</g>
<g id="after_effects">
</g>
<g id="dreamwever">
</g>
<g id="indesign">
</g>
<g id="lightroom">
</g>
<g id="illustrator">
</g>
<g id="presentation">
</g>
<g id="microphone">
</g>
<g id="globe">
</g>
<g id="password">
</g>
<g id="break_link">
</g>
<g id="link">
</g>
<g id="tap">
</g>
<g id="down">
</g>
<g id="top">
</g>
<g id="direction">
</g>
<g id="move">
</g>
<g id="click">
</g>
<g id="point">
</g>
<g id="like">
</g>
<g id="support">
</g>
<g id="wifi">
</g>
<g id="music">
</g>
<g id="more">
</g>
<g id="visible">
</g>
<g id="error">
</g>
<g id="list">
</g>
<g id="grid">
</g>
<g id="favorite">
</g>
<g id="exit">
</g>
<g id="power">
</g>
<g id="delete">
</g>
<g id="msg">
</g>
<g id="info">
</g>
<g id="help">
</g>
<g id="warning">
</g>
<g id="cassete">
</g>
<g id="piano">
</g>
<g id="speaker">
</g>
<g id="attention">
</g>
<g id="crown">
</g>
<g id="prize">
</g>
<g id="medal">
</g>
<g id="alarm">
</g>
<g id="stopper">
</g>
<g id="flag">
</g>
<g id="snapchat">
</g>
<g id="dribbble">
</g>
<g id="flickr">
</g>
<g id="youtube">
</g>
<g id="skype">
</g>
<g id="twitter">
</g>
<g id="instagram">
</g>
<g id="linkedin">
</g>
<g id="vimeo">
</g>
<g id="tumbler">
</g>
<g id="google">
</g>
<g id="whatsapp">
</g>
<g id="facebook">
</g>
<g id="curve">
</g>
<g id="paint_bucket">
</g>
<g id="roller">
</g>
<g id="switch">
</g>
<g id="scissors">
</g>
<g id="picker">
</g>
<g id="brush">
</g>
<g id="brush_1_">
</g>
<g id="brush_2_">
</g>
<g id="brush_3_">
</g>
<g id="brush_4_">
</g>
<g id="brush_5_">
</g>
<g>
	<path class="st0" d="M34.8,40.4H15.2c-3.3,0-6-2.7-6-6V14.9c0-3.3,2.7-6,6-6h19.5c3.3,0,6,2.7,6,6v19.5
		C40.8,37.7,38,40.4,34.8,40.4z"/>
	<path class="st1" d="M34.5,40.4H15c-3.5,0-6.2-2.8-6.2-6.2V14.7c0-3.5,2.8-6.2,6.2-6.2h19.5c3.5,0,6.2,2.8,6.2,6.2v19.5
		C40.8,37.6,38,40.4,34.5,40.4z M9.2,14.7v19.5c0,3.2,2.6,5.8,5.8,5.8h19.5c3.2,0,5.8-2.6,5.8-5.8V14.7c0-3.2-2.6-5.8-5.8-5.8H15
		C11.8,8.9,9.2,11.5,9.2,14.7z"/>
	<path class="st0" d="M38.2,23.4v9.3c0,2.8-2.3,5.2-5.2,5.2H16.4c-2.8,0-5.2-2.3-5.2-5.2V16.1c0-2.8,2.3-5.2,5.2-5.2h16.8"/>
	<path class="st1" d="M33.3,38H16.7c-3,0-5.4-2.4-5.4-5.4V15.9c0-3,2.4-5.4,5.4-5.4h16.8c0.1,0,0.2,0.1,0.2,0.2S33.6,11,33.5,11
		H16.7c-2.7,0-4.9,2.2-4.9,4.9v16.7c0,2.7,2.2,4.9,4.9,4.9h16.7c2.7,0,4.9-2.2,4.9-4.9v-9.3c0-0.1,0.1-0.2,0.2-0.2s0.2,0.1,0.2,0.2
		v9.3C38.8,35.5,36.3,38,33.3,38z"/>
	<g>
		<path class="st1" d="M38.5,21.7c-0.1,0-0.2-0.1-0.2-0.2v-2c0-0.1,0.1-0.2,0.2-0.2s0.2,0.1,0.2,0.2v2
			C38.8,21.6,38.6,21.7,38.5,21.7z"/>
	</g>
	<g>
		<path class="st1" d="M38.5,18.7c-0.1,0-0.2-0.1-0.2-0.2v-1c0-0.1,0.1-0.2,0.2-0.2s0.2,0.1,0.2,0.2v1
			C38.8,18.6,38.6,18.7,38.5,18.7z"/>
	</g>
	<g>
		<path class="st1" d="M34.8,40.4H15.2c-3.6,0-6.5-2.9-6.5-6.5V14.4c0-3.6,2.9-6.5,6.5-6.5h19.5c3.6,0,6.5,2.9,6.5,6.5v19.5
			C41.2,37.5,38.3,40.4,34.8,40.4z M9.8,14.4v19.5c0,3,2.5,5.5,5.5,5.5h19.5c3,0,5.5-2.5,5.5-5.5V14.4c0-3-2.5-5.5-5.5-5.5H15.2
			C12.2,8.9,9.8,11.4,9.8,14.4z"/>
	</g>
	<polygon class="st2" points="32.5,18.7 32.7,15.3 25,15.3 17.3,15.3 17.9,25.5 25,25.5 28.7,25.5 28.4,29.3 25,30.5 21.5,29.3 
		21.3,27.2 17.9,27.2 18.3,31.8 25,34 31.6,31.8 32.2,22.1 25,22.1 21.1,22.1 20.8,18.7 25,18.7 	"/>
</g>
</svg>
