<?xml version="1.0" encoding="utf-8"?>
<!-- Generator: Adobe Illustrator 23.0.1, SVG Export Plug-In . SVG Version: 6.00 Build 0)  -->
<svg version="1.1" id="Layer_1" xmlns="http://www.w3.org/2000/svg" xmlns:xlink="http://www.w3.org/1999/xlink" x="0px" y="0px"
	 viewBox="0 0 620 620" style="enable-background:new 0 0 620 620;" xml:space="preserve">
<style type="text/css">
	.st0{fill:#EC407A;}
</style>
<g>
	<path d="M37.17,283.95V43.96h49.7v88.33c5.98-5.13,12.48-9.27,19.48-12.42c7-3.15,15.36-4.73,25.09-4.73
		c9.08,0,17.13,1.58,24.13,4.73c7,3.15,12.91,7.53,17.71,13.15s8.44,12.29,10.9,20.04c2.46,7.75,3.69,16.17,3.69,25.25v105.65h-49.7
		V178.3c0-8.12-1.87-14.45-5.61-19c-3.74-4.54-9.25-6.81-16.51-6.81c-5.45,0-10.58,1.18-15.39,3.53c-4.81,2.35-9.41,5.51-13.79,9.46
		v118.47H37.17z"/>
	<path d="M274.43,117.7v166.25h-49.7V117.7H274.43z"/>
	<path d="M314.51,283.95V117.7h29.5c2.46,0,4.51,0.22,6.17,0.64c1.66,0.43,3.05,1.1,4.17,2c1.12,0.91,1.98,2.11,2.57,3.61
		c0.59,1.5,1.09,3.31,1.52,5.45l2.72,15.55c6.09-9.4,12.93-16.83,20.52-22.28c7.59-5.45,15.87-8.18,24.85-8.18
		c7.59,0,13.68,1.82,18.28,5.45l-6.41,36.55c-0.43,2.24-1.28,3.82-2.57,4.73c-1.28,0.91-2.99,1.36-5.13,1.36
		c-1.82,0-3.96-0.24-6.41-0.72c-2.46-0.48-5.56-0.72-9.3-0.72c-13.04,0-23.3,6.95-30.78,20.84v101.96H314.51z"/>
	<path d="M518.11,115.14c11.01,0,21.08,1.71,30.22,5.13c9.14,3.42,16.99,8.39,23.57,14.91c6.57,6.52,11.7,14.51,15.39,23.97
		c3.69,9.46,5.53,20.17,5.53,32.14c0,3.74-0.16,6.79-0.48,9.14c-0.32,2.35-0.91,4.22-1.76,5.61c-0.86,1.39-2,2.35-3.45,2.89
		c-1.44,0.54-3.29,0.8-5.53,0.8h-95.87c1.6,13.89,5.82,23.97,12.67,30.22c6.84,6.25,15.66,9.38,26.45,9.38
		c5.77,0,10.74-0.69,14.91-2.08c4.17-1.39,7.88-2.94,11.14-4.65c3.26-1.71,6.25-3.26,8.98-4.65c2.73-1.39,5.58-2.08,8.58-2.08
		c3.95,0,6.95,1.44,8.98,4.33l14.43,17.79c-5.13,5.88-10.66,10.66-16.59,14.35c-5.93,3.69-12.02,6.57-18.28,8.66
		s-12.5,3.53-18.76,4.33c-6.25,0.8-12.21,1.2-17.88,1.2c-11.65,0-22.58-1.9-32.78-5.69c-10.21-3.79-19.13-9.43-26.77-16.91
		c-7.64-7.48-13.68-16.78-18.12-27.9c-4.44-11.11-6.65-24.05-6.65-38.8c0-11.11,1.9-21.64,5.69-31.58
		c3.79-9.94,9.24-18.65,16.35-26.13c7.11-7.48,15.71-13.41,25.81-17.79C493.98,117.33,505.39,115.14,518.11,115.14z M519.07,149.44
		c-9.51,0-16.94,2.7-22.28,8.1c-5.35,5.4-8.87,13.17-10.58,23.33h62.04c0-3.95-0.51-7.8-1.52-11.54c-1.02-3.74-2.67-7.08-4.97-10.02
		c-2.3-2.94-5.32-5.32-9.06-7.13C528.95,150.35,524.41,149.44,519.07,149.44z"/>
	<path d="M104.02,569.77V403.52h30.78c3.1,0,5.69,0.7,7.77,2.08c2.08,1.39,3.55,3.47,4.41,6.25l2.73,8.98
		c2.78-2.89,5.66-5.53,8.66-7.94c2.99-2.4,6.22-4.49,9.7-6.25c3.47-1.76,7.21-3.15,11.22-4.17c4.01-1.01,8.42-1.52,13.23-1.52
		c10.04,0,18.36,2.59,24.93,7.78c6.57,5.18,11.57,12.1,14.99,20.76c2.78-5.13,6.17-9.51,10.18-13.15c4.01-3.63,8.34-6.57,12.99-8.82
		c4.65-2.25,9.56-3.9,14.75-4.97c5.18-1.07,10.34-1.6,15.47-1.6c9.51,0,17.96,1.42,25.33,4.25c7.37,2.83,13.55,6.95,18.52,12.34
		c4.97,5.4,8.74,12.02,11.3,19.88c2.56,7.86,3.85,16.75,3.85,26.69v105.65h-49.7V464.12c0-17.21-7.37-25.81-22.12-25.81
		c-6.73,0-12.32,2.22-16.75,6.65c-4.44,4.44-6.65,10.82-6.65,19.16v105.65h-49.7V464.12c0-9.51-1.87-16.19-5.61-20.04
		c-3.74-3.85-9.25-5.77-16.51-5.77c-4.49,0-8.74,1.02-12.74,3.05c-4.01,2.03-7.78,4.76-11.3,8.18v120.24H104.02z"/>
	<path d="M451.26,400.96c11.01,0,21.08,1.71,30.22,5.13c9.14,3.42,16.99,8.39,23.57,14.91c6.57,6.52,11.7,14.51,15.39,23.97
		c3.69,9.46,5.53,20.17,5.53,32.14c0,3.74-0.16,6.79-0.48,9.14c-0.32,2.35-0.91,4.22-1.76,5.61c-0.86,1.39-2,2.35-3.45,2.88
		c-1.44,0.54-3.29,0.8-5.53,0.8h-95.87c1.6,13.89,5.82,23.97,12.67,30.22c6.84,6.25,15.66,9.38,26.45,9.38
		c5.77,0,10.74-0.69,14.91-2.08c4.17-1.39,7.88-2.94,11.14-4.65c3.26-1.71,6.25-3.26,8.98-4.65c2.73-1.39,5.58-2.08,8.58-2.08
		c3.95,0,6.95,1.44,8.98,4.33L525,543.8c-5.13,5.88-10.66,10.66-16.59,14.35c-5.93,3.69-12.02,6.57-18.28,8.66
		s-12.5,3.53-18.76,4.33c-6.25,0.8-12.21,1.2-17.88,1.2c-11.65,0-22.58-1.9-32.78-5.69c-10.21-3.79-19.13-9.43-26.77-16.91
		c-7.64-7.48-13.68-16.78-18.12-27.89c-4.44-11.11-6.65-24.05-6.65-38.8c0-11.11,1.9-21.64,5.69-31.58
		c3.79-9.94,9.24-18.65,16.35-26.13c7.11-7.48,15.71-13.41,25.81-17.79C427.13,403.15,438.54,400.96,451.26,400.96z M452.22,435.26
		c-9.51,0-16.94,2.7-22.28,8.1c-5.35,5.4-8.87,13.17-10.58,23.33h62.04c0-3.95-0.51-7.8-1.52-11.54c-1.02-3.74-2.67-7.08-4.97-10.02
		c-2.3-2.94-5.32-5.31-9.06-7.13C462.1,436.17,457.56,435.26,452.22,435.26z"/>
</g>
<g>
	<path d="M249.75,99.03c-3.76,0-7.32-0.73-10.58-2.16c-3.29-1.45-6.25-3.42-8.8-5.86c-2.53-2.43-4.54-5.29-5.97-8.51
		c-1.43-3.2-2.15-6.67-2.15-10.33c0-3.77,0.73-7.32,2.16-10.58c1.44-3.27,3.45-6.19,5.98-8.68c2.53-2.48,5.48-4.45,8.76-5.84
		c3.26-1.38,6.83-2.08,10.6-2.08c3.89,0,7.6,0.71,11.03,2.1c3.43,1.39,6.48,3.36,9.07,5.84c2.58,2.49,4.65,5.41,6.14,8.68
		c1.48,3.25,2.23,6.8,2.23,10.55c0,3.65-0.75,7.11-2.22,10.3c-1.49,3.22-3.55,6.09-6.13,8.52c-2.6,2.45-5.66,4.42-9.1,5.86
		C257.33,98.3,253.63,99.03,249.75,99.03z"/>
	<path class="st0" d="M249.75,47c3.63,0,7.09,0.66,10.28,1.95c3.19,1.3,6.03,3.13,8.43,5.43c2.4,2.31,4.32,5.03,5.7,8.07
		c1.36,2.99,2.05,6.26,2.05,9.73c0,3.35-0.69,6.54-2.04,9.47c-1.38,2.99-3.29,5.65-5.68,7.9c-2.42,2.28-5.28,4.12-8.51,5.48
		c-3.18,1.34-6.62,2.01-10.23,2.01c-3.49,0-6.77-0.67-9.77-1.99c-3.08-1.35-5.84-3.19-8.21-5.47c-2.34-2.25-4.2-4.9-5.53-7.88
		c-1.31-2.94-1.98-6.14-1.98-9.51c0-3.49,0.67-6.77,1.99-9.77c1.33-3.04,3.2-5.74,5.55-8.05c2.35-2.31,5.09-4.13,8.14-5.43
		C242.94,47.64,246.24,47,249.75,47 M249.75,43c-4.06,0-7.85,0.75-11.38,2.24c-3.53,1.5-6.65,3.58-9.38,6.25
		c-2.73,2.67-4.86,5.77-6.41,9.3c-1.55,3.53-2.32,7.32-2.32,11.38c0,3.96,0.77,7.67,2.32,11.14c1.55,3.47,3.69,6.52,6.41,9.14
		c2.73,2.62,5.85,4.7,9.38,6.25c3.53,1.55,7.32,2.32,11.38,2.32c4.17,0,8.1-0.77,11.78-2.32c3.69-1.55,6.92-3.63,9.7-6.25
		c2.78-2.62,4.97-5.66,6.57-9.14c1.6-3.47,2.4-7.19,2.4-11.14c0-4.06-0.8-7.85-2.4-11.38c-1.6-3.53-3.79-6.63-6.57-9.3
		c-2.78-2.67-6.01-4.75-9.7-6.25C257.84,43.74,253.91,43,249.75,43L249.75,43z"/>
</g>
</svg>
