<svg id="Layer_1" data-name="Layer 1" xmlns="http://www.w3.org/2000/svg" xmlns:xlink="http://www.w3.org/1999/xlink" viewBox="0 0 1140 3745"><defs><style>.cls-1{font-size:26px;}.cls-1,.cls-4,.cls-52,.cls-53,.cls-54,.cls-7{fill:#303030;}.cls-1,.cls-5,.cls-52,.cls-7{font-family:Lato-Bold, Lato;font-weight:700;}.cls-2,.cls-6,.cls-69{fill:none;stroke-miterlimit:10;}.cls-2{stroke:#303030;}.cls-3{fill:#ec407a;}.cls-4{font-size:16px;}.cls-10,.cls-4,.cls-50,.cls-53,.cls-9{font-family:Lato-Light, Lato;font-weight:300;}.cls-6{stroke:#ec407a;}.cls-50,.cls-53,.cls-7{font-size:20px;}.cls-8{letter-spacing:-0.02em;}.cls-10,.cls-11{letter-spacing:1.61em;}.cls-12{letter-spacing:-0.06em;}.cls-13{letter-spacing:-0.02em;}.cls-14{letter-spacing:-0.03em;}.cls-15{letter-spacing:-0.01em;}.cls-16{letter-spacing:-0.03em;}.cls-17{letter-spacing:0.23em;}.cls-18{letter-spacing:-0.03em;}.cls-19{letter-spacing:0.93em;}.cls-20{letter-spacing:-0.01em;}.cls-21{letter-spacing:-0.02em;}.cls-22{letter-spacing:0.82em;}.cls-23{letter-spacing:0.09em;}.cls-24{letter-spacing:-0.01em;}.cls-25{letter-spacing:-0.03em;}.cls-26{letter-spacing:1.1em;}.cls-27{letter-spacing:0.15em;}.cls-28{letter-spacing:1.36em;}.cls-29{letter-spacing:-0.1em;}.cls-30{letter-spacing:0.15em;}.cls-31{letter-spacing:1.55em;}.cls-32{letter-spacing:0.91em;}.cls-33{letter-spacing:-0.16em;}.cls-34{letter-spacing:0.34em;}.cls-35{letter-spacing:1.53em;}.cls-36{letter-spacing:-0.06em;}.cls-37{letter-spacing:-0.08em;}.cls-38{letter-spacing:-0.03em;}.cls-39{letter-spacing:-0.04em;}.cls-40{letter-spacing:-0.14em;}.cls-41{letter-spacing:-0.15em;}.cls-42{letter-spacing:0.08em;}.cls-43{letter-spacing:1.45em;}.cls-44{letter-spacing:0.47em;}.cls-45{letter-spacing:0.95em;}.cls-46{letter-spacing:1.59em;}.cls-47{letter-spacing:1.19em;}.cls-48{letter-spacing:-0.1em;}.cls-49{letter-spacing:1.22em;}.cls-50{fill:#b5b5b5;}.cls-51{letter-spacing:-0.04em;}.cls-52{font-size:25px;}.cls-55{fill:url(#linear-gradient);}.cls-56{fill:url(#linear-gradient-2);}.cls-57{fill:url(#linear-gradient-3);}.cls-58{fill:url(#linear-gradient-4);}.cls-59{fill:url(#linear-gradient-5);}.cls-60{letter-spacing:-0.05em;}.cls-61{letter-spacing:-0.01em;}.cls-62{letter-spacing:0em;}.cls-63{fill:url(#linear-gradient-6);}.cls-64{letter-spacing:-0.11em;}.cls-65{fill:url(#linear-gradient-7);}.cls-66{fill:url(#linear-gradient-8);}.cls-67{fill:url(#linear-gradient-9);}.cls-68{fill:url(#linear-gradient-10);}.cls-69{stroke:#b5b5b5;}</style><linearGradient id="linear-gradient" x1="571.5" y1="2456.4" x2="1004.5" y2="2456.4" gradientUnits="userSpaceOnUse"><stop offset="0" stop-color="#ec407a"/><stop offset="0.85" stop-color="#ed467e"/><stop offset="0.98" stop-color="#fff"/></linearGradient><linearGradient id="linear-gradient-2" x1="571.5" y1="2536.4" x2="1004.5" y2="2536.4" gradientUnits="userSpaceOnUse"><stop offset="0" stop-color="#ec407a"/><stop offset="0.64" stop-color="#ed467e"/><stop offset="0.87" stop-color="#fff"/></linearGradient><linearGradient id="linear-gradient-3" x1="571.5" y1="2616.4" x2="1004.5" y2="2616.4" gradientUnits="userSpaceOnUse"><stop offset="0" stop-color="#ec407a"/><stop offset="0.57" stop-color="#ed467e"/><stop offset="0.74" stop-color="#fff"/></linearGradient><linearGradient id="linear-gradient-4" x1="571.5" y1="2696.4" x2="1004.5" y2="2696.4" gradientUnits="userSpaceOnUse"><stop offset="0" stop-color="#ec407a"/><stop offset="0.42" stop-color="#ed467e"/><stop offset="0.61" stop-color="#fff"/></linearGradient><linearGradient id="linear-gradient-5" x1="571.5" y1="2776.4" x2="1004.5" y2="2776.4" gradientUnits="userSpaceOnUse"><stop offset="0" stop-color="#ec407a"/><stop offset="0.56" stop-color="#ed467e"/><stop offset="0.81" stop-color="#fff"/></linearGradient><linearGradient id="linear-gradient-6" x1="571.5" y1="2906.4" x2="1004.5" y2="2906.4" gradientUnits="userSpaceOnUse"><stop offset="0.69" stop-color="#0078c8"/><stop offset="0.86" stop-color="#70b3e0"/><stop offset="0.98" stop-color="#fff"/></linearGradient><linearGradient id="linear-gradient-7" x1="571.5" y1="2986.4" x2="1004.5" y2="2986.4" gradientUnits="userSpaceOnUse"><stop offset="0.44" stop-color="#0078c8"/><stop offset="0.67" stop-color="#1583cc"/><stop offset="0.84" stop-color="#fff"/></linearGradient><linearGradient id="linear-gradient-8" y1="3066.4" y2="3066.4" xlink:href="#linear-gradient-7"/><linearGradient id="linear-gradient-9" y1="3146.4" y2="3146.4" xlink:href="#linear-gradient-6"/><linearGradient id="linear-gradient-10" x1="571.5" y1="3226.4" x2="1004.5" y2="3226.4" gradientUnits="userSpaceOnUse"><stop offset="0.51" stop-color="#0078c8"/><stop offset="0.72" stop-color="#64addd"/><stop offset="0.84" stop-color="#fff"/></linearGradient></defs><title>Jonathan-Bennett-Resume-2018</title><text class="cls-1" transform="translate(729.33 79.25)">Education</text><line class="cls-2" x1="759" y1="98.4" x2="817" y2="98.4"/><circle class="cls-3" cx="434.5" cy="168.4" r="7"/><text class="cls-4" transform="translate(450.16 163.07)">Autumn<tspan class="cls-5"><tspan x="0" y="19.2">2011</tspan></tspan></text><circle class="cls-3" cx="434.5" cy="381.4" r="7"/><text class="cls-4" transform="translate(450.16 377.07)">Summer<tspan class="cls-5"><tspan x="0" y="19.2">2013</tspan></tspan></text><circle class="cls-3" cx="434.5" cy="614.4" r="7"/><text class="cls-4" transform="translate(450.16 610.07)">Summer<tspan class="cls-5"><tspan x="0" y="19.2">2014</tspan></tspan></text><circle class="cls-3" cx="435" cy="946.9" r="7"/><text class="cls-4" transform="translate(450.66 941.57)">Spring<tspan class="cls-5"><tspan x="0" y="19.2">2015</tspan></tspan></text><path class="cls-6" d="M434.5,168.4H414a2,2,0,0,0-2,2V944.9a2,2,0,0,0,2,2h14"/><path class="cls-6" d="M434.5,1278.4H414a2,2,0,0,0-2,2v802.5a2,2,0,0,0,2,2h21.5"/><text class="cls-7" transform="translate(570 167.76)">Arizona State Uni<tspan class="cls-8" x="156.83" y="0">v</tspan><tspan x="167.17" y="0">ersity </tspan><tspan class="cls-9"><tspan x="0" y="24">Herberger School of Design and the Arts</tspan></tspan><tspan class="cls-10"><tspan x="0" y="48">	</tspan></tspan><tspan class="cls-9"><tspan class="cls-11" x="0" y="72">	</tspan><tspan x="36" y="72">Began pursuing a Bachelors in the Science of </tspan><tspan class="cls-11" x="0" y="96">	</tspan><tspan x="36" y="96">Industrial Design with a focus on sustainabilit</tspan><tspan class="cls-12" x="417.34" y="96">y</tspan><tspan x="425.83" y="96">.</tspan></tspan></text><text class="cls-1" transform="translate(722.83 1187.25)">Experience</text><line class="cls-2" x1="759" y1="1206.4" x2="817" y2="1206.4"/><circle class="cls-3" cx="434.5" cy="1278.4" r="7"/><text class="cls-4" transform="translate(450.16 1273.07)">Spring<tspan class="cls-5"><tspan x="0" y="19.2">2015</tspan></tspan></text><circle class="cls-3" cx="435" cy="1728.9" r="7"/><text class="cls-4" transform="translate(450.66 1723.57)">Spring<tspan class="cls-5"><tspan x="0" y="19.2">2018</tspan></tspan></text><circle class="cls-3" cx="435" cy="2084.9" r="7"/><text class="cls-4" transform="translate(450.66 2079.57)">Autumn<tspan class="cls-5"><tspan x="0" y="19.2">2018</tspan></tspan></text><text class="cls-7" transform="translate(570 1277.76)">The NOCO Compa<tspan class="cls-13" x="165.59" y="0">n</tspan><tspan x="176.6" y="0">y</tspan><tspan class="cls-9"><tspan x="0" y="24">Product &amp; B</tspan><tspan class="cls-14" x="102.97" y="24">r</tspan><tspan x="110.41" y="24">and Designer</tspan></tspan><tspan class="cls-10"><tspan x="0" y="48">	</tspan></tspan><tspan class="cls-9"><tspan class="cls-11" x="0" y="72">	</tspan><tspan class="cls-15" x="36" y="72">W</tspan><tspan x="55.54" y="72">or</tspan><tspan class="cls-16" x="74.3" y="72">k</tspan><tspan x="83.54" y="72">ed directly with the CCO on a lean team </tspan><tspan class="cls-17" x="423.54" y="72">	</tspan><tspan class="cls-11" x="432" y="72">	</tspan><tspan class="cls-11" x="0" y="96">	</tspan><tspan x="36" y="96">that </tspan><tspan class="cls-16" x="74.67" y="96">e</tspan><tspan x="84.29" y="96">xperienced startup-li</tspan><tspan class="cls-18" x="260.44" y="96">k</tspan><tspan x="269.68" y="96">e growth from 2 </tspan><tspan class="cls-19" x="409.59" y="96">	</tspan><tspan class="cls-11" x="432" y="96">	</tspan><tspan class="cls-11" x="0" y="120">	</tspan><tspan x="36" y="120">(</tspan><tspan class="cls-20" x="42" y="120">m</tspan><tspan x="57.66" y="120">yself and the CC</tspan><tspan class="cls-21" x="196.77" y="120">O</tspan><tspan x="212.32" y="120">) to 15 within the time I </tspan><tspan class="cls-22" x="411.65" y="120">	</tspan><tspan class="cls-11" x="432" y="120">	</tspan><tspan class="cls-11" x="0" y="144">	</tspan><tspan x="36" y="144">wor</tspan><tspan class="cls-16" x="69.5" y="144">k</tspan><tspan x="78.74" y="144">ed here. I was responsible for ma</tspan><tspan class="cls-20" x="354.41" y="144">n</tspan><tspan x="364.98" y="144">y tasks </tspan><tspan class="cls-23" x="426.34" y="144">	</tspan><tspan class="cls-11" x="432" y="144">	</tspan><tspan class="cls-11" x="0" y="168">	</tspan><tspan x="36" y="168">such as website UX d</tspan><tspan class="cls-24" x="213.27" y="168">ev</tspan><tspan x="232.87" y="168">elopment, site </tspan><tspan class="cls-11" x="0" y="192">	</tspan><tspan x="36" y="192">optimization, and SE</tspan><tspan class="cls-25" x="207.76" y="192">O</tspan><tspan x="223.13" y="192">, CAD design and </tspan><tspan class="cls-11" x="0" y="216">	</tspan><tspan x="36" y="216">followthrough with manufacturers, product </tspan><tspan class="cls-26" x="406.21" y="216">	</tspan><tspan class="cls-11" x="431.99" y="216">	</tspan><tspan class="cls-11" x="0" y="240">	</tspan><tspan x="36" y="240">photog</tspan><tspan class="cls-14" x="96.38" y="240">r</tspan><tspan x="103.82" y="240">ap</tspan><tspan class="cls-20" x="124.25" y="240">h</tspan><tspan class="cls-12" x="134.82" y="240">y</tspan><tspan x="143.31" y="240">, internal document creation, </tspan><tspan class="cls-27" x="389.05" y="240">	</tspan><tspan class="cls-11" x="396" y="240" xml:space="preserve">		</tspan><tspan class="cls-11" x="0" y="264">	</tspan><tspan x="36" y="264">web and p</tspan><tspan class="cls-20" x="121.77" y="264">h</tspan><tspan x="132.34" y="264">ysical ads, t</tspan><tspan class="cls-14" x="227.06" y="264">r</tspan><tspan x="234.5" y="264" xml:space="preserve">ade show booth,  </tspan><tspan class="cls-11" x="0" y="288">	</tspan><tspan x="36" y="288">fabrication, and displ</tspan><tspan class="cls-20" x="210.98" y="288">a</tspan><tspan class="cls-12" x="220.46" y="288">y</tspan><tspan x="228.95" y="288">, on-boarding and </tspan><tspan class="cls-11" x="0" y="312">	</tspan><tspan x="36" y="312">t</tspan><tspan class="cls-14" x="43.13" y="312">r</tspan><tspan x="50.57" y="312">aining new hires, assistant managing projects, </tspan><tspan class="cls-28" x="436.94" y="312">	</tspan><tspan class="cls-11" x="0" y="336">	</tspan><tspan x="36" y="336" xml:space="preserve">product  ideation, videog</tspan><tspan class="cls-14" x="244.63" y="336">r</tspan><tspan x="252.07" y="336">ap</tspan><tspan class="cls-20" x="272.5" y="336">h</tspan><tspan class="cls-12" x="283.07" y="336">y</tspan><tspan x="291.56" y="336" xml:space="preserve">, and more.  </tspan></tspan></text><text class="cls-7" transform="translate(570 379.76)">Mediphor Design<tspan class="cls-9"><tspan x="0" y="24">Summer Internship</tspan></tspan><tspan class="cls-10"><tspan x="0" y="48">	</tspan></tspan><tspan class="cls-9"><tspan class="cls-11" x="0" y="72">	</tspan><tspan class="cls-15" x="36" y="72">W</tspan><tspan x="55.54" y="72">or</tspan><tspan class="cls-16" x="74.3" y="72">k</tspan><tspan x="83.54" y="72">ed as a functional model ma</tspan><tspan class="cls-16" x="315.47" y="72">k</tspan><tspan x="324.71" y="72">er for </tspan><tspan class="cls-11" x="0" y="96">	</tspan><tspan x="36" y="96">products displ</tspan><tspan class="cls-20" x="155.61" y="96">a</tspan><tspan class="cls-24" x="165.09" y="96">y</tspan><tspan x="174.65" y="96">ed at a medical industry </tspan><tspan class="cls-11" x="0" y="120">	</tspan><tspan x="36" y="120">t</tspan><tspan class="cls-14" x="43.13" y="120">r</tspan><tspan x="50.57" y="120">adesho</tspan><tspan class="cls-14" x="111.68" y="120">w</tspan><tspan x="125.92" y="120">.</tspan></tspan></text><text class="cls-7" transform="translate(570 613.76)"><tspan class="cls-29">T</tspan><tspan x="9.86" y="0">echtronic Industries</tspan><tspan class="cls-9"><tspan x="0" y="24">Summer Internship</tspan></tspan><tspan class="cls-10"><tspan x="0" y="48">	</tspan></tspan><tspan class="cls-9"><tspan class="cls-11" x="0" y="72">	</tspan><tspan class="cls-15" x="36" y="72">W</tspan><tspan x="55.54" y="72">or</tspan><tspan class="cls-16" x="74.3" y="72">k</tspan><tspan x="83.54" y="72">ed on the outdoor products design team </tspan><tspan class="cls-30" x="425.19" y="72">	</tspan><tspan class="cls-11" x="432" y="72">	</tspan><tspan class="cls-11" x="0" y="96">	</tspan><tspan x="36" y="96">for b</tspan><tspan class="cls-14" x="75.98" y="96">r</tspan><tspan x="83.42" y="96">ands such as R</tspan><tspan class="cls-24" x="205.35" y="96">y</tspan><tspan x="214.91" y="96">obi, Rigid, C</tspan><tspan class="cls-14" x="314.22" y="96">r</tspan><tspan x="321.66" y="96">aftsman, and </tspan><tspan class="cls-31" x="433.16" y="96">	</tspan><tspan class="cls-11" x="0" y="120">	</tspan><tspan x="36" y="120">more. My main focus was Photoshop work for </tspan><tspan class="cls-11" x="0" y="144">	</tspan><tspan x="36" y="144">presentations, sales, and in-house purposes, </tspan><tspan class="cls-32" x="409.88" y="144">	</tspan><tspan class="cls-11" x="431.99" y="144">	</tspan><tspan class="cls-11" x="0" y="168">	</tspan><tspan x="36" y="168">and </tspan><tspan class="cls-33" x="71.33" y="168">	</tspan><tspan x="72" y="168">CAD for miscellaneous accessories. I </tspan><tspan class="cls-34" x="385.35" y="168">	</tspan><tspan class="cls-11" x="396" y="168" xml:space="preserve">		</tspan><tspan class="cls-11" x="0" y="192">	</tspan><tspan x="36" y="192">wor</tspan><tspan class="cls-16" x="69.5" y="192">k</tspan><tspan x="78.74" y="192">ed closely with </tspan><tspan class="cls-20" x="206.88" y="192">m</tspan><tspan x="222.54" y="192">y team leaders to ensure </tspan><tspan class="cls-35" x="433.51" y="192">	</tspan><tspan class="cls-11" x="0" y="216">	</tspan><tspan x="36" y="216">b</tspan><tspan class="cls-14" x="46.92" y="216">r</tspan><tspan x="54.36" y="216">anding was followed down to </tspan><tspan class="cls-24" x="302.56" y="216">ev</tspan><tspan x="322.16" y="216">ery detail.</tspan></tspan></text><text class="cls-7" transform="translate(570 944.76)">Bachelors in the Science of Design<tspan class="cls-9"><tspan x="0" y="24">G</tspan><tspan class="cls-14" x="14.97" y="24">r</tspan><tspan x="22.41" y="24">aduated Magna Cum Laude with a 3.7G</tspan><tspan class="cls-36" x="355.59" y="24">P</tspan><tspan x="366.28" y="24">A</tspan></tspan><tspan class="cls-10"><tspan x="0" y="48">	</tspan></tspan><tspan class="cls-9"><tspan class="cls-11" x="0" y="72">	</tspan><tspan x="36" y="72">Notable Awards:</tspan><tspan class="cls-11" x="0" y="96">	</tspan><tspan x="36" y="96">Senior Of The </tspan><tspan class="cls-37" x="157.69" y="96">Y</tspan><tspan x="168.08" y="96">ear: 2nd Place</tspan><tspan class="cls-11" x="0" y="120">	</tspan><tspan x="36" y="120">Design E</tspan><tspan class="cls-16" x="111.36" y="120">x</tspan><tspan x="119.97" y="120">cellency Award 2 semesters</tspan><tspan class="cls-11" x="0" y="144">	</tspan><tspan x="36" y="144">Dea</tspan><tspan class="cls-38" x="71.15" y="144">n</tspan><tspan x="81.32" y="144">’s List </tspan><tspan class="cls-24" x="132.3" y="144">ev</tspan><tspan x="151.9" y="144">ery semester</tspan></tspan></text><text class="cls-7" transform="translate(570 1727.76)">Distoric Design Group (DDG) L<tspan class="cls-39" x="271.69" y="0">L</tspan><tspan x="281.23" y="0">C</tspan><tspan class="cls-9"><tspan x="0" y="24">Product Support/</tspan><tspan class="cls-37" x="148.15" y="24">T</tspan><tspan class="cls-14" x="158.24" y="24">r</tspan><tspan x="165.67" y="24">ade Show Specialist</tspan></tspan><tspan class="cls-10"><tspan x="0" y="48">	</tspan></tspan><tspan class="cls-9"><tspan class="cls-11" x="0" y="72">	</tspan><tspan x="36" y="72">DDG is partners with The NOCO Compa</tspan><tspan class="cls-20" x="383.44" y="72">n</tspan><tspan class="cls-12" x="394.01" y="72">y</tspan><tspan x="402.5" y="72">. In </tspan><tspan class="cls-40" x="430.97" y="72">	</tspan><tspan class="cls-11" x="432" y="72">	</tspan><tspan class="cls-11" x="0" y="96">	</tspan><tspan x="36" y="96">this </tspan><tspan class="cls-41" x="71.16" y="96">	</tspan><tspan x="72" y="96">time, with the blessing of </tspan><tspan class="cls-20" x="284.87" y="96">m</tspan><tspan x="300.53" y="96">y CC</tspan><tspan class="cls-25" x="342.27" y="96">O</tspan><tspan x="357.64" y="96">, I spent </tspan><tspan class="cls-42" x="426.62" y="96">	</tspan><tspan class="cls-11" x="432" y="96">	</tspan><tspan class="cls-11" x="0" y="120">	</tspan><tspan x="36" y="120">5 months t</tspan><tspan class="cls-14" x="126.55" y="120">r</tspan><tspan class="cls-20" x="133.99" y="120">a</tspan><tspan class="cls-24" x="143.46" y="120">v</tspan><tspan x="153.03" y="120">eling across the west coast of the </tspan><tspan class="cls-43" x="435.13" y="120">	</tspan><tspan class="cls-11" x="0" y="144">	</tspan><tspan x="36" y="144">US and to Europe to learn more about </tspan><tspan class="cls-20" x="359.45" y="144">m</tspan><tspan x="375.11" y="144">yself </tspan><tspan class="cls-44" x="418.72" y="144">	</tspan><tspan class="cls-11" x="432" y="144">	</tspan><tspan class="cls-11" x="0" y="168">	</tspan><tspan x="36" y="168">and the world in which we li</tspan><tspan class="cls-24" x="268.22" y="168">v</tspan><tspan x="277.79" y="168">e. I wor</tspan><tspan class="cls-16" x="339.15" y="168">k</tspan><tspan x="348.39" y="168">ed as a </tspan><tspan class="cls-45" x="409.17" y="168">	</tspan><tspan class="cls-11" x="432" y="168">	</tspan><tspan class="cls-11" x="0" y="192">	</tspan><tspan x="36" y="192">Product Support and </tspan><tspan class="cls-37" x="216.2" y="192">T</tspan><tspan class="cls-14" x="226.29" y="192">r</tspan><tspan x="233.73" y="192">ade Show Specialist for </tspan><tspan class="cls-46" x="432.25" y="192">	</tspan><tspan class="cls-11" x="0" y="216">	</tspan><tspan x="36" y="216">wee</tspan><tspan class="cls-16" x="71.18" y="216">k</tspan><tspan x="80.42" y="216">ends, holid</tspan><tspan class="cls-20" x="170.85" y="216">a</tspan><tspan x="180.33" y="216">ys, and busy weeks for the </tspan><tspan class="cls-47" x="404.31" y="216">	</tspan><tspan class="cls-11" x="432" y="216">	</tspan><tspan class="cls-11" x="0" y="240">	</tspan><tspan x="36" y="240">compa</tspan><tspan class="cls-20" x="92.26" y="240">n</tspan><tspan x="102.83" y="240">y to support </tspan><tspan class="cls-20" x="208.8" y="240">m</tspan><tspan x="224.46" y="240">yself while on the road. </tspan></tspan></text><text class="cls-7" transform="translate(570 2082.76)">Distoric Design Group (DDG) L<tspan class="cls-39" x="271.69" y="0">L</tspan><tspan x="281.23" y="0">C</tspan><tspan class="cls-9"><tspan x="0" y="24">Product Support Specialist</tspan></tspan><tspan class="cls-10"><tspan x="0" y="48">	</tspan></tspan><tspan class="cls-9"><tspan class="cls-11" x="0" y="72">	</tspan><tspan x="36" y="72">I remain with DDG as a cont</tspan><tspan class="cls-14" x="273.25" y="72">r</tspan><tspan x="280.68" y="72">acto</tspan><tspan class="cls-12" x="317.46" y="72">r</tspan><tspan x="324.15" y="72">, but am </tspan><tspan class="cls-48" x="394.19" y="72">	</tspan><tspan class="cls-11" x="396" y="72" xml:space="preserve">		</tspan><tspan class="cls-11" x="0" y="96">	</tspan><tspan x="36" y="96">searching for a more permanent position within </tspan><tspan class="cls-49" x="439.79" y="96">	</tspan><tspan class="cls-11" x="0" y="120">	</tspan><tspan x="36" y="120">the UX or Product field as that is where </tspan><tspan class="cls-20" x="369.9" y="120">m</tspan><tspan x="385.56" y="120">y </tspan><tspan class="cls-11" x="0" y="144">	</tspan><tspan x="36" y="144">passion is found. </tspan></tspan></text><text class="cls-1" transform="translate(757.52 2328.25)">Skills</text><text class="cls-50" transform="translate(585.5 2387.25)">Professional Confidence <tspan class="cls-51" x="210.72" y="0">F</tspan><tspan x="221.41" y="0">or Each Prog</tspan><tspan class="cls-14" x="330.08" y="0">r</tspan><tspan x="337.52" y="0">am/Skill</tspan></text><line class="cls-2" x1="759" y1="2347.4" x2="817" y2="2347.4"/><text class="cls-52" transform="translate(737.81 3331.25)">Interests</text><line class="cls-2" x1="759" y1="3350.4" x2="817" y2="3350.4"/><text class="cls-53" transform="translate(570 2435.25)">Photoshop &amp; Illust<tspan class="cls-14" x="155.98" y="0">r</tspan><tspan x="163.42" y="0">ator</tspan></text><rect class="cls-54" x="570" y="2447.9" width="436" height="17" rx="4"/><rect class="cls-55" x="571.5" y="2449.4" width="433" height="14" rx="3"/><text class="cls-53" transform="translate(570 2515.25)">InDesign &amp; Acrobat Reader</text><rect class="cls-54" x="570" y="2527.9" width="436" height="17" rx="4"/><rect class="cls-56" x="571.5" y="2529.4" width="433" height="14" rx="3"/><rect class="cls-54" x="570" y="2607.9" width="436" height="17" rx="4"/><rect class="cls-57" x="571.5" y="2609.4" width="433" height="14" rx="3"/><text class="cls-53" transform="translate(570 2675.25)">HTML &amp; CSS</text><rect class="cls-54" x="570" y="2687.9" width="436" height="17" rx="4"/><rect class="cls-58" x="571.5" y="2689.4" width="433" height="14" rx="3"/><text class="cls-53" transform="translate(570 2595.25)">Premiere &amp; Lightroom</text><text class="cls-53" transform="translate(570 2755.25)">Solidworks</text><rect class="cls-54" x="570" y="2767.9" width="436" height="17" rx="4"/><rect class="cls-59" x="571.5" y="2769.4" width="433" height="14" rx="3"/><text class="cls-53" transform="translate(570 2885.25)">Communication | <tspan class="cls-60" x="149.17" y="0">V</tspan><tspan x="160.98" y="0">erbal, Written, D</tspan><tspan class="cls-14" x="303.08" y="0">r</tspan><tspan class="cls-61" x="310.52" y="0">a</tspan><tspan class="cls-62" x="320.12" y="0">wn</tspan></text><rect class="cls-54" x="570" y="2897.9" width="436" height="17" rx="4"/><rect class="cls-63" x="571.5" y="2899.4" width="433" height="14" rx="3"/><text class="cls-53" transform="translate(570 2965.25)">Interdependency With <tspan class="cls-64" x="195.93" y="0">T</tspan><tspan x="205.47" y="0">eam</tspan></text><rect class="cls-54" x="570" y="2977.9" width="436" height="17" rx="4"/><rect class="cls-65" x="571.5" y="2979.4" width="433" height="14" rx="3"/><rect class="cls-54" x="570" y="3057.9" width="436" height="17" rx="4"/><rect class="cls-66" x="571.5" y="3059.4" width="433" height="14" rx="3"/><text class="cls-53" transform="translate(570 3045.25)">Adaptability </text><text class="cls-53" transform="translate(727.66 3415.25)">Guitar | Music</text><text class="cls-53" transform="translate(658.64 3478.25)">Outdoor Ad<tspan class="cls-24" x="102.07" y="0">v</tspan><tspan x="111.63" y="0">enture | Climbing</tspan></text><text class="cls-53" transform="translate(690.03 3544.25)">Reading | Video Games</text><text class="cls-53" transform="translate(674.75 3609.25)">Home | Auto Impr<tspan class="cls-24" x="151.84" y="0">ov</tspan><tspan x="172.04" y="0">ement</tspan></text><text class="cls-53" transform="translate(713.31 3676.25)"><tspan class="cls-37">Y</tspan><tspan x="10.39" y="0">oga | Meditation</tspan></text><text class="cls-53" transform="translate(570 3125.25)">Conflict Resolution</text><rect class="cls-54" x="570" y="3137.9" width="436" height="17" rx="4"/><rect class="cls-67" x="571.5" y="3139.4" width="433" height="14" rx="3"/><rect class="cls-54" x="570" y="3217.9" width="436" height="17" rx="4"/><rect class="cls-68" x="571.5" y="3219.4" width="433" height="14" rx="3"/><text class="cls-53" transform="translate(570 3205.25)">Empat<tspan class="cls-20" x="55.29" y="0">h</tspan><tspan class="cls-62" x="65.86" y="0">y</tspan></text><line class="cls-69" x1="570" y1="2829.9" x2="1006" y2="2829.9"/></svg>