<svg xmlns="http://www.w3.org/2000/svg" viewBox="0 0 294.67 839.1"><defs><style>.cls-1{fill:#515151;}.cls-1,.cls-5{stroke:#000;stroke-miterlimit:10;stroke-width:4px;}.cls-2{fill:#e91200;}.cls-3{font-size:73.28px;font-family:HelveticaNeueLTStd-Bd, Helvetica Neue LT Std;font-weight:700;}.cls-3,.cls-4{fill:#fff;}.cls-5{fill:#2b2b2b;}</style></defs><title>stop-sign-icon</title><g id="Vans"><path class="cls-1" d="M141.34,807.37a15,15,0,0,1-15-15V167a15,15,0,0,1,30,0V792.37A15,15,0,0,1,141.34,807.37Z"/></g><g id="Tires"><path d="M106.17,800.8a77.68,77.68,0,0,1,8.66-.75c2.87-.1,5.72-.1,8.57,0s5.68.23,8.5.48,5.63.52,8.44.88h-1c3.22-.41,6.45-.72,9.69-1s6.48-.43,9.74-.5,6.53-.09,9.81,0a88.06,88.06,0,0,1,9.91.88,85.57,85.57,0,0,1-9.44,3.14c-3.16.89-6.34,1.64-9.53,2.31s-6.39,1.24-9.6,1.76-6.43.93-9.66,1.27l-.53.06-.46-.07c-2.8-.39-5.6-.84-8.38-1.38s-5.55-1.13-8.32-1.78-5.51-1.44-8.25-2.3A77.19,77.19,0,0,1,106.17,800.8Z"/><path class="cls-2" d="M99.26,255.56a2,2,0,0,1-1.41-.59l-59.5-59.5a2,2,0,0,1-.59-1.42V109.9a2,2,0,0,1,.59-1.41L97.85,49a2,2,0,0,1,1.41-.59h84.15a2,2,0,0,1,1.42.59l59.5,59.5a2,2,0,0,1,.58,1.41v84.15a2,2,0,0,1-.58,1.42L184.83,255a2,2,0,0,1-1.42.59Z"/><path d="M183.41,50.4l59.5,59.5v84.15l-59.5,59.51H99.26l-59.5-59.51V109.9l59.5-59.5h84.15m0-4H99.26a4,4,0,0,0-2.83,1.17l-59.5,59.51a4,4,0,0,0-1.17,2.82v84.15a4,4,0,0,0,1.17,2.83l59.5,59.5a4,4,0,0,0,2.83,1.18h84.15a4,4,0,0,0,2.83-1.18l59.5-59.5a4,4,0,0,0,1.17-2.83V109.9a4,4,0,0,0-1.17-2.82l-59.5-59.51a4,4,0,0,0-2.83-1.17Z"/><text class="cls-3" transform="translate(53.77 185.77) scale(0.88 1.25)">STOP</text><path class="cls-4" d="M182.58,52.4l58.33,58.33v82.49l-58.33,58.34H100.09L41.76,193.22V110.73L100.09,52.4h82.49m.83-2H99.26l-59.5,59.5v84.15l59.5,59.51h84.15l59.5-59.51V109.9l-59.5-59.5Z"/><polyline class="cls-5" points="156.34 271.44 156.34 256.2 126.37 256.2"/></g></svg>