<svg id="Layer_1" data-name="Layer 1" xmlns="http://www.w3.org/2000/svg" viewBox="0 0 1440 136"><title>noco-logo</title><path d="M466.4,25h41.1l50.57,63.54V25h26.6v87h-41.1L493,48.44V112H466.4Z"/><path d="M592.79,81.7V56.05q0-17.08,8.41-24.5t29.3-7.47h43.85q20.34,0,28.93,7.47t8.6,24.09v26c-.2,11.27-3.13,19.34-8.78,24.14s-15.1,7.12-28.47,7.12H630.5q-19.83,0-28.77-7T592.79,81.7ZM620.21,64v8.47c0,7.41,1.08,12.31,3.28,14.68s6.43,3.49,12.8,3.49H669.2c6.16,0,10.22-1.23,12.21-3.73s3-7.15,3-13.91V64.17q0-10.39-3.74-14.1t-12.8-3.73H637.17c-6.37,0-10.79,1.28-13.29,3.81S620.21,57.3,620.21,64Z"/><path d="M805.35,78.32H832V87q0,13.78-7.72,19.88t-24.92,6.06H756.12q-19.75,0-28.7-7.07t-8.95-24V56q0-17.82,8.73-24.84t29.22-7.07h32q24.61,0,33.61,5.65t9,22.76V56.8H804.41V54.3a6.71,6.71,0,0,0-3-6q-3-2-9.76-2H763c-6.32,0-10.76,1.28-13.32,3.81s-3.8,7.15-3.8,13.9v8.42q0,11.11,3.27,14.68t12.91,3.49h28.41q9.32,0,11.94-2.26C804.21,86.82,805.19,83.45,805.35,78.32Z"/><path d="M838.19,81.7V56.05q0-17.08,8.43-24.5t29.28-7.47h43.85q20.34,0,28.93,7.47t8.6,24.09v26c-.19,11.27-3.12,19.34-8.78,24.14s-15.1,7.12-28.46,7.12H875.9q-19.8,0-28.75-7T838.19,81.7ZM865.62,64v8.47q0,11.11,3.26,14.68c2.19,2.32,6.45,3.49,12.81,3.49h32.92c6.15,0,10.22-1.23,12.2-3.73s3.05-7.15,3.05-13.91V64.17q0-10.39-3.75-14.1c-2.45-2.48-6.7-3.73-12.79-3.73H882.57c-6.36,0-10.78,1.28-13.28,3.81S865.62,57.3,865.62,64Z"/><path d="M971.82,14A14.18,14.18,0,1,1,957.16,28.1,14.29,14.29,0,0,1,971.74,14Zm-.18,2.85A11,11,0,0,0,960.78,28.1a10.94,10.94,0,0,0,11,11.26c6.2.12,10.77-5,10.77-11.26S978,16.83,971.74,16.83Zm-2.16,18.58H966.2v-14a27.31,27.31,0,0,1,5.44-.53c2.67,0,3.87.43,4.9,1.13a3.87,3.87,0,0,1,1.39,3A3.65,3.65,0,0,1,975,28.37v.16c1.39.44,2.17,1.55,2.59,3.45.44,2.15.69,3,1,3.43h-3.54A11.13,11.13,0,0,1,974,32.05c-.26-1.53-1.12-2.23-2.93-2.23h-1.56Zm.1-7.93h1.53c1.82,0,3.29-.61,3.29-2.05s-1-2.17-3-2.17a7.89,7.89,0,0,0-1.8.18Z"/></svg>